<?xml version="1.0" encoding="utf-8"?>
<!-- Generator: Adobe Illustrator 22.0.0, SVG Export Plug-In . SVG Version: 6.00 Build 0)  -->
<svg version="1.1" id="Layer_1" xmlns="http://www.w3.org/2000/svg" xmlns:xlink="http://www.w3.org/1999/xlink" x="0px" y="0px"
	 viewBox="0 0 130 105" style="enable-background:new 0 0 130 105;" xml:space="preserve">
<style type="text/css">
	.st0{fill:#BF493C;}
	.st1{fill:#282828;}
	.st2{fill:#F5F5F5;}
	.st3{fill:#71C2A0;}
	.st4{fill:#FFFFFF;}
</style>
<g>
	<g>
		<path class="st0" d="M120.6,85H9.4c-4.8,0-8.6-3.9-8.6-8.6v-67c0-4.8,3.9-8.6,8.6-8.6h111.2c4.8,0,8.6,3.9,8.6,8.6v67
			C129.3,81.2,125.4,85,120.6,85z"/>
	</g>
	<g>
		<path class="st1" d="M120.6,85.8H9.4c-5.2,0-9.4-4.2-9.4-9.4v-67C0,4.2,4.2,0,9.4,0h111.2c5.2,0,9.4,4.2,9.4,9.4v67
			C130,81.6,125.8,85.8,120.6,85.8z M9.4,1.5C5,1.5,1.5,5,1.5,9.4v67c0,4.3,3.5,7.9,7.9,7.9h111.2c4.3,0,7.9-3.5,7.9-7.9v-67
			c0-4.3-3.5-7.9-7.9-7.9H9.4z"/>
	</g>
	<g>
		<path class="st2" d="M6,69.3V8.6C6,7.2,7.2,6,8.6,6h112.8c1.4,0,2.6,1.2,2.6,2.6v60.7c0,1.4-1.2,2.6-2.6,2.6H8.6
			C7.2,71.9,6,70.8,6,69.3z"/>
	</g>
	<g>
		<path class="st1" d="M107.7,6.7h-2c-0.4,0-0.8-0.3-0.8-0.8s0.3-0.8,0.8-0.8h2c0.4,0,0.8,0.3,0.8,0.8S108.1,6.7,107.7,6.7z"/>
	</g>
	<g>
		<path class="st1" d="M15.2,72.7H8.3c-1.7,0-3-1.4-3-3V8.3c0-1.7,1.4-3,3-3h92.6c0.4,0,0.8,0.3,0.8,0.8s-0.3,0.8-0.8,0.8H8.3
			c-0.9,0-1.5,0.7-1.5,1.5v61.4c0,0.9,0.7,1.5,1.5,1.5h6.9c0.4,0,0.8,0.3,0.8,0.8S15.6,72.7,15.2,72.7z"/>
	</g>
	<g>
		<path class="st1" d="M121.7,72.7H21.8c-0.4,0-0.8-0.3-0.8-0.8s0.3-0.8,0.8-0.8h99.9c0.9,0,1.5-0.7,1.5-1.5V8.3
			c0-0.9-0.7-1.5-1.5-1.5H114c-0.4,0-0.8-0.3-0.8-0.8s0.3-0.8,0.8-0.8h7.7c1.7,0,3,1.4,3,3v61.4C124.8,71.3,123.4,72.7,121.7,72.7z"
			/>
	</g>
	<g>
		<path class="st0" d="M65.1,104.3h15.7v-2.6c0,0-8.7-1.7-8.7-16.6H58c0,14.8-8.7,16.6-8.7,16.6v2.6H65"/>
	</g>
	<g>
		<path class="st1" d="M65,105H48.5v-4l0.6-0.1c0.3-0.1,8.1-1.9,8.1-15.9v-0.8h14.9c0.4,0,0.8,0.3,0.8,0.8s-0.3,0.8-0.8,0.8H58.8
			c-0.2,12.6-6.7,15.7-8.7,16.4v1.3h15c0.4,0,0.8,0.3,0.8,0.8S65.4,105,65,105z"/>
	</g>
	<g>
		<path class="st1" d="M81.6,105H65.1c-0.4,0-0.8-0.3-0.8-0.8s0.3-0.8,0.8-0.8h15v-1.3c-1.6-0.6-6.1-2.7-7.9-10.1
			c-0.1-0.4,0.1-0.8,0.5-0.9c0.4-0.1,0.8,0.1,0.9,0.5c2,8,7.3,9.1,7.4,9.1l0.6,0.1V105z"/>
	</g>
	<g>
		<polygon class="st3" points="129.3,47 0.8,47 0.8,20.8 58.8,20.8 65.1,28 71.7,20.8 129.3,20.8 		"/>
	</g>
	<g>
		<path class="st1" d="M130,47.8H0V20.1h59.1l6,6.8l6.3-6.8H130V47.8z M1.5,46.3h127V21.6H72.1l-6.9,7.6l-6.7-7.6H1.5V46.3z"/>
	</g>
	<g>
		<path class="st1" d="M65.1,29.1l-7.4-7.8c-0.3-0.3-0.3-0.8,0-1.1c0.3-0.3,0.8-0.3,1.1,0l6.3,6.6l6.1-6.6c0.3-0.3,0.8-0.3,1.1,0
			c0.3,0.3,0.3,0.8,0,1.1L65.1,29.1z"/>
	</g>
	<g>
		<g>
			<path class="st4" d="M46.6,34.1H34.5c-0.4,0-0.8-0.3-0.8-0.8s0.3-0.8,0.8-0.8h12.1c0.4,0,0.8,0.3,0.8,0.8S47,34.1,46.6,34.1z"/>
		</g>
		<g>
			<path class="st4" d="M95.5,34.1H83.4c-0.4,0-0.8-0.3-0.8-0.8s0.3-0.8,0.8-0.8h12.1c0.4,0,0.8,0.3,0.8,0.8S95.9,34.1,95.5,34.1z"
				/>
		</g>
	</g>
	<g>
		<path class="st1" d="M85.8,17.3c-0.3,0-0.6-0.2-0.7-0.5c-0.1-0.4,0.1-0.8,0.5-0.9l9.7-3.1c0.4-0.1,0.8,0.1,0.9,0.5
			c0.1,0.4-0.1,0.8-0.5,0.9L86,17.2C86,17.3,85.9,17.3,85.8,17.3z"/>
	</g>
	<g>
		<path class="st1" d="M42.3,15.7h-7.8c-0.4,0-0.8-0.3-0.8-0.8s0.3-0.8,0.8-0.8h7.8c0.4,0,0.8,0.3,0.8,0.8S42.7,15.7,42.3,15.7z"/>
	</g>
	<g>
		<path class="st1" d="M68,63.9c-0.2,0-0.4-0.1-0.5-0.2l-6.1-6.1c-0.3-0.3-0.3-0.8,0-1.1s0.8-0.3,1.1,0l6.1,6.1
			c0.3,0.3,0.3,0.8,0,1.1C68.4,63.8,68.2,63.9,68,63.9z"/>
	</g>
	<g>
		<path class="st1" d="M62,63.9c-0.2,0-0.4-0.1-0.5-0.2c-0.3-0.3-0.3-0.8,0-1.1l6.1-6.1c0.3-0.3,0.8-0.3,1.1,0s0.3,0.8,0,1.1
			l-6.1,6.1C62.3,63.8,62.1,63.9,62,63.9z"/>
	</g>
</g>
</svg>
