<?xml version="1.0" encoding="utf-8"?>
<!-- Generator: Adobe Illustrator 22.0.0, SVG Export Plug-In . SVG Version: 6.00 Build 0)  -->
<svg version="1.1" id="Layer_1" xmlns="http://www.w3.org/2000/svg" xmlns:xlink="http://www.w3.org/1999/xlink" x="0px" y="0px"
	 viewBox="0 0 140 46" style="enable-background:new 0 0 140 46;" xml:space="preserve">
<style type="text/css">
	.st0{fill:#1D1D1B;}
	.st1{fill:#FFFFFF;}
</style>
<g>
	<path class="st0" d="M140,39.8c0,3.4-2.8,6.2-6.2,6.2H6.2C2.8,46,0,43.2,0,39.8V6.2C0,2.8,2.8,0,6.2,0h127.6c3.4,0,6.2,2.8,6.2,6.2
		V39.8z"/>
	<g>
		<path class="st1" d="M36.5,30.4c-0.7,1.7-1.1,2.4-2,3.8c-1.3,2-3.2,4.6-5.5,4.6c-2.1,0-2.6-1.4-5.4-1.3c-2.8,0-3.4,1.4-5.5,1.3
			c-2.3,0-4.1-2.3-5.4-4.3c-3.7-5.7-4.1-12.4-1.8-15.9c1.6-2.5,4.2-4,6.6-4c2.5,0,4,1.4,6.1,1.4c2,0,3.2-1.4,6-1.4
			c2.2,0,4.4,1.2,6.1,3.2C30.3,20.7,31.1,28.4,36.5,30.4z"/>
		<g>
			<path class="st1" d="M27.4,12.3c1-1.3,1.8-3.2,1.5-5.1c-1.7,0.1-3.7,1.2-4.8,2.6c-1,1.3-1.9,3.2-1.6,5
				C24.3,14.8,26.3,13.7,27.4,12.3z"/>
		</g>
	</g>
	<g>
		<g>
			<path class="st1" d="M47.9,18.5l-5.3,15.8H45l1.6-4.8h5.2l1.6,4.8h2.5l-5.4-15.8H47.9z M49.1,21.1c0.2,0.7,0.4,1.4,0.6,2.2
				l1.4,4.2h-4.1l1.4-4.2C48.7,22.6,48.9,21.9,49.1,21.1z"/>
			<path class="st1" d="M62.8,22.6c-1.6,0-2.9,0.6-3.8,1.8l-0.1-1.6h-2.2l0,0.2c0.1,1,0.1,2.1,0.1,3.6v12.2h2.4v-5.7
				c0.7,0.9,1.9,1.4,3.2,1.4c1.4,0,2.7-0.5,3.6-1.5c1-1.1,1.6-2.7,1.6-4.6c0-1.7-0.5-3.1-1.4-4.2C65.4,23.2,64.1,22.6,62.8,22.6z
				 M62.2,24.6c2.1,0,3.1,2,3.1,3.9c0,2.5-1.2,4.1-3.2,4.1c-1.3,0-2.5-0.9-2.8-2.2c-0.1-0.2-0.1-0.5-0.1-0.8v-1.9
				c0-0.2,0-0.4,0.1-0.6c0-0.1,0-0.1,0-0.2C59.7,25.5,60.8,24.6,62.2,24.6z"/>
			<path class="st1" d="M75,22.6c-1.6,0-2.9,0.6-3.8,1.8l-0.1-1.6H69l0,0.2c0.1,1,0.1,2.1,0.1,3.6v12.2h2.4v-5.7
				c0.7,0.9,1.9,1.4,3.2,1.4c1.4,0,2.7-0.5,3.6-1.5c1-1.1,1.6-2.7,1.6-4.6c0-1.7-0.5-3.1-1.4-4.2C77.6,23.2,76.4,22.6,75,22.6z
				 M74.4,24.6c2.1,0,3.1,2,3.1,3.9c0,2.5-1.2,4.1-3.2,4.1c-1.3,0-2.5-0.9-2.8-2.2c-0.1-0.2-0.1-0.5-0.1-0.8v-1.9
				c0-0.2,0-0.4,0.1-0.6c0-0.1,0-0.1,0-0.2C71.9,25.5,73.1,24.6,74.4,24.6z"/>
			<path class="st1" d="M90.3,25.2c-2.2-0.9-2.9-1.5-2.9-2.8c0-1.1,0.8-2.1,2.7-2.1c1.5,0,2.5,0.5,2.8,0.7l0.2,0.1l0.7-2L93.6,19
				c-0.4-0.2-1.5-0.8-3.5-0.8c-3,0-5.1,1.8-5.1,4.4c0,2.1,1.3,3.5,4.2,4.6c2,0.8,2.8,1.5,2.8,2.9c0,1.5-1.2,2.4-3,2.4
				c-1.2,0-2.5-0.4-3.4-1l-0.2-0.1l-0.6,2l0.1,0.1c0.9,0.6,2.6,1,4,1c4.1,0,5.5-2.5,5.5-4.6C94.3,27.7,93.2,26.3,90.3,25.2z"/>
			<path class="st1" d="M98.6,20.1l-2.3,0.7v2h-1.7v1.9h1.7v5.8c0,1.4,0.3,2.4,0.8,3c0.5,0.6,1.3,0.9,2.3,0.9c0.9,0,1.5-0.2,1.8-0.3
				l0.1,0l-0.1-1.9l-0.2,0.1c-0.3,0.1-0.6,0.1-1.1,0.1c-0.9,0-1.3-0.6-1.3-2v-5.8h2.9v-1.9h-2.9V20.1z"/>
			<path class="st1" d="M107.4,22.6c-3.3,0-5.6,2.5-5.6,6.1c0,3.5,2.2,5.9,5.5,5.9h0c2.7,0,5.6-1.9,5.6-6.1c0-1.7-0.5-3.2-1.5-4.2
				C110.3,23.1,109,22.6,107.4,22.6z M107.3,24.5c2.1,0,3.1,2.1,3.1,4c0,2.4-1.3,4.1-3.2,4.1h0c-1.8,0-3.1-1.7-3.1-4.1
				C104.1,26.5,105.1,24.5,107.3,24.5z"/>
			<path class="st1" d="M120.1,22.7l-0.1,0c-0.2-0.1-0.4-0.1-0.6-0.1c-1.2,0-2.4,0.7-3,1.9l-0.1-1.7h-2.1l0,0.2
				c0.1,0.9,0.1,2,0.1,3.4l0,7.8h2.4v-6.1c0-0.3,0-0.6,0.1-0.9c0.3-1.5,1.2-2.4,2.5-2.4c0.2,0,0.4,0,0.6,0l0.3,0V22.7z"/>
			<path class="st1" d="M125.5,22.6c-3.2,0-5.4,2.5-5.4,6.2c0,3.5,2.2,5.8,5.6,5.8c1.8,0,3-0.4,3.8-0.7l0.1-0.1l-0.5-1.8l-0.2,0.1
				c-0.6,0.3-1.5,0.5-3,0.5c-1,0-3.4-0.3-3.6-3.5l7.7,0l0-0.2c0-0.2,0.1-0.6,0.1-1C130.2,25.5,128.9,22.6,125.5,22.6z M125.3,24.4
				c0.7,0,1.3,0.2,1.7,0.7c0.7,0.7,0.8,1.7,0.8,2.2h-5.4C122.7,25.9,123.5,24.4,125.3,24.4z"/>
		</g>
		<g>
			<path class="st1" d="M42.5,7.7c0.7-0.1,1.4-0.2,2.3-0.2c1.5,0,2.6,0.3,3.3,0.9c0.7,0.6,1.2,1.5,1.2,2.7c0,1.2-0.4,2.2-1.2,2.9
				c-0.8,0.7-2.1,1.1-3.7,1.1c-0.8,0-1.4,0-1.9-0.1V7.7z M43.6,14.3c0.3,0,0.7,0,1.1,0c2.3,0,3.5-1.2,3.5-3.2c0-1.8-1.1-2.9-3.3-2.9
				c-0.6,0-1,0-1.2,0.1V14.3z"/>
			<path class="st1" d="M53.1,15.2c-1.6,0-2.8-1.1-2.8-2.8c0-1.8,1.3-2.8,2.9-2.8c1.7,0,2.9,1.1,2.9,2.7
				C56.1,14.3,54.6,15.2,53.1,15.2L53.1,15.2z M53.2,14.5c1,0,1.8-0.9,1.8-2.1c0-0.9-0.5-2-1.8-2c-1.3,0-1.8,1.1-1.8,2.1
				C51.4,13.6,52.1,14.5,53.2,14.5L53.2,14.5z"/>
			<path class="st1" d="M57.8,9.7l0.8,2.7c0.2,0.6,0.3,1.2,0.4,1.7h0c0.1-0.5,0.3-1.1,0.5-1.7l1-2.7h0.9l0.9,2.7
				c0.2,0.6,0.4,1.2,0.5,1.7h0c0.1-0.5,0.3-1.1,0.5-1.7l0.8-2.7h1.1l-1.9,5.4h-1l-0.9-2.6c-0.2-0.6-0.4-1.1-0.5-1.8h0
				c-0.1,0.6-0.3,1.2-0.5,1.8l-1,2.5h-1l-1.8-5.4H57.8z"/>
			<path class="st1" d="M66.4,11.2c0-0.6,0-1,0-1.5h1l0.1,0.9h0c0.3-0.5,1-1,2-1c0.8,0,2.1,0.4,2.1,2.3v3.2h-1.1V12
				c0-0.9-0.4-1.6-1.4-1.6c-0.7,0-1.2,0.5-1.4,1c0,0.1-0.1,0.3-0.1,0.5v3.2h-1.1V11.2z"/>
			<path class="st1" d="M73.2,7.2h1.1v7.9h-1.1V7.2z"/>
			<path class="st1" d="M78.5,15.2c-1.6,0-2.8-1.1-2.8-2.8c0-1.8,1.3-2.8,2.9-2.8c1.7,0,2.9,1.1,2.9,2.7
				C81.4,14.3,79.9,15.2,78.5,15.2L78.5,15.2z M78.5,14.5c1,0,1.8-0.9,1.8-2.1c0-0.9-0.5-2-1.8-2c-1.3,0-1.8,1.1-1.8,2.1
				C76.7,13.6,77.4,14.5,78.5,14.5L78.5,14.5z"/>
			<path class="st1" d="M86.9,13.8c0,0.5,0,0.9,0.1,1.3h-1L86,14.4h0c-0.3,0.4-1,0.8-1.8,0.8c-1.2,0-1.8-0.8-1.8-1.5
				c0-1.3,1.3-2,3.6-2v-0.1c0-0.4-0.1-1.3-1.3-1.2c-0.6,0-1.1,0.1-1.6,0.4l-0.2-0.7c0.5-0.3,1.2-0.5,2-0.5c1.8,0,2.3,1.1,2.3,2.2
				V13.8z M85.9,12.3c-1.2,0-2.5,0.2-2.5,1.2c0,0.6,0.5,0.9,1,0.9c0.8,0,1.3-0.4,1.5-0.9c0-0.1,0-0.2,0-0.3V12.3z"/>
			<path class="st1" d="M93.8,7.2v6.5c0,0.5,0,1,0,1.4h-1l0-0.9h0c-0.3,0.6-1,1.1-2,1.1c-1.4,0-2.5-1.1-2.5-2.7
				c0-1.8,1.2-2.9,2.7-2.9c0.9,0,1.5,0.4,1.8,0.8h0V7.2H93.8z M92.7,11.9c0-0.1,0-0.3,0-0.4c-0.2-0.6-0.7-1.1-1.6-1.1
				c-1.1,0-1.8,0.9-1.8,2.1c0,1.1,0.6,2,1.8,2c0.7,0,1.4-0.4,1.6-1.2c0-0.1,0-0.3,0-0.4V11.9z"/>
			<path class="st1" d="M100.6,15.2c-1.6,0-2.8-1.1-2.8-2.8c0-1.8,1.3-2.8,2.9-2.8c1.7,0,2.9,1.1,2.9,2.7
				C103.5,14.3,102,15.2,100.6,15.2L100.6,15.2z M100.6,14.5c1,0,1.8-0.9,1.8-2.1c0-0.9-0.5-2-1.8-2c-1.3,0-1.8,1.1-1.8,2.1
				C98.8,13.6,99.6,14.5,100.6,14.5L100.6,14.5z"/>
			<path class="st1" d="M104.9,11.2c0-0.6,0-1,0-1.5h1l0.1,0.9h0c0.3-0.5,1-1,2-1c0.8,0,2.1,0.4,2.1,2.3v3.2h-1.1V12
				c0-0.9-0.4-1.6-1.4-1.6c-0.7,0-1.2,0.5-1.4,1c0,0.1-0.1,0.3-0.1,0.5v3.2h-1.1V11.2z"/>
			<path class="st1" d="M115.6,8.4v1.3h1.5v0.7h-1.5v2.9c0,0.7,0.2,1,0.8,1c0.3,0,0.5,0,0.6-0.1l0,0.7c-0.2,0.1-0.5,0.1-1,0.1
				c-0.5,0-0.9-0.2-1.2-0.4c-0.3-0.3-0.4-0.8-0.4-1.4v-2.9h-0.9V9.7h0.9v-1L115.6,8.4z"/>
			<path class="st1" d="M118.4,7.2h1.1v3.3h0c0.2-0.3,0.4-0.5,0.8-0.7c0.3-0.2,0.7-0.3,1.1-0.3c0.8,0,2.1,0.4,2.1,2.3v3.2h-1.1V12
				c0-0.9-0.4-1.6-1.4-1.6c-0.7,0-1.2,0.4-1.4,1c-0.1,0.1-0.1,0.3-0.1,0.5v3.2h-1.1V7.2z"/>
			<path class="st1" d="M125.8,12.6c0,1.3,0.9,1.9,2,1.9c0.8,0,1.2-0.1,1.6-0.3l0.2,0.7c-0.4,0.2-1,0.3-2,0.3
				c-1.8,0-2.9-1.1-2.9-2.7c0-1.6,1.1-2.9,2.8-2.9c1.9,0,2.4,1.5,2.4,2.5c0,0.2,0,0.4,0,0.5L125.8,12.6z M128.9,11.9
				c0-0.6-0.3-1.6-1.5-1.6c-1.1,0-1.6,0.9-1.7,1.6H128.9z"/>
		</g>
	</g>
</g>
</svg>
