<?xml version="1.0" encoding="utf-8"?>
<!-- Generator: Adobe Illustrator 22.0.0, SVG Export Plug-In . SVG Version: 6.00 Build 0)  -->
<svg version="1.1" id="Layer_1" xmlns="http://www.w3.org/2000/svg" xmlns:xlink="http://www.w3.org/1999/xlink" x="0px" y="0px"
	 viewBox="0 0 140 46" style="enable-background:new 0 0 140 46;" xml:space="preserve">
<style type="text/css">
	.st0{fill:#1D1D1B;}
	.st1{clip-path:url(#SVGID_2_);fill:url(#SVGID_3_);}
	.st2{clip-path:url(#SVGID_2_);fill:url(#SVGID_4_);}
	.st3{clip-path:url(#SVGID_2_);fill:url(#SVGID_5_);}
	.st4{clip-path:url(#SVGID_2_);fill:url(#SVGID_6_);}
	.st5{fill:#F9F9F9;}
	.st6{fill:#FCFCFC;}
</style>
<g>
	<path class="st0" d="M140,39.8c0,3.4-2.8,6.2-6.2,6.2H6.2C2.8,46,0,43.2,0,39.8V6.2C0,2.8,2.8,0,6.2,0h127.6c3.4,0,6.2,2.8,6.2,6.2
		V39.8z"/>
	<g id="PLAY_1_">
		<defs>
			<path id="SVGID_1_" d="M30.3,20.2L24,16.6c0,0-11.5-6.7-12.2-7.1s-1.3-0.2-1.3,0.7c0,1.4,0,14.2,0,14.2s0,13.9,0,14.5
				c0,0.6,0.5,0.9,1.1,0.5c0.6-0.3,12.5-7.2,12.5-7.2l6.3-3.7c0,0,5.4-3.1,6.1-3.5c0.7-0.4,0.6-1,0-1.3
				C35.8,23.5,30.3,20.2,30.3,20.2z"/>
		</defs>
		<clipPath id="SVGID_2_">
			<use xlink:href="#SVGID_1_"  style="overflow:visible;"/>
		</clipPath>
		<linearGradient id="SVGID_3_" gradientUnits="userSpaceOnUse" x1="18.3202" y1="8.856" x2="18.3202" y2="40.007">
			<stop  offset="0" style="stop-color:#207AB0"/>
			<stop  offset="0.3206" style="stop-color:#4A98B5"/>
			<stop  offset="0.7782" style="stop-color:#81C0BB"/>
			<stop  offset="1" style="stop-color:#97CFBE"/>
		</linearGradient>
		<polygon class="st1" points="10.5,8.9 10.5,24.4 10.5,40 26.1,24.4 		"/>
		<linearGradient id="SVGID_4_" gradientUnits="userSpaceOnUse" x1="10.501" y1="16.5872" x2="30.3398" y2="16.5872">
			<stop  offset="0" style="stop-color:#59BBAA"/>
			<stop  offset="1" style="stop-color:#E6E89A"/>
		</linearGradient>
		<polygon class="st2" points="30.3,20.2 24,16.6 10.5,8.7 10.5,8.9 26.1,24.4 		"/>
		<linearGradient id="SVGID_5_" gradientUnits="userSpaceOnUse" x1="20.4203" y1="24.4317" x2="20.4203" y2="40.1203">
			<stop  offset="0" style="stop-color:#E43332"/>
			<stop  offset="0.1636" style="stop-color:#D43643"/>
			<stop  offset="0.7271" style="stop-color:#A23E7A"/>
			<stop  offset="1" style="stop-color:#8E4190"/>
		</linearGradient>
		<polygon class="st3" points="10.5,40 10.5,40.1 24,32.3 30.3,28.6 26.1,24.4 		"/>
		<linearGradient id="SVGID_6_" gradientUnits="userSpaceOnUse" x1="31.8466" y1="20.2481" x2="31.8466" y2="28.6148">
			<stop  offset="0" style="stop-color:#F08779"/>
			<stop  offset="0.6326" style="stop-color:#F8B474"/>
			<stop  offset="1" style="stop-color:#FCCA72"/>
		</linearGradient>
		<polygon class="st4" points="30.3,20.2 26.1,24.4 30.3,28.6 37.6,24.4 		"/>
	</g>
	<g>
		<path class="st5" d="M109,30.5c-0.6,0-1.1-0.1-1.6-0.3c-0.5-0.2-0.9-0.6-1.2-1H106c0.1,0.5,0.1,1,0.1,1.5v3.7h-1.4V21.3h1.1
			l0.2,1.2h0.1c0.4-0.5,0.8-0.9,1.2-1.1c0.5-0.2,1-0.3,1.6-0.3c1.2,0,2.1,0.4,2.8,1.2c0.7,0.8,1,2,1,3.5c0,1.5-0.3,2.6-1,3.5
			C111,30.1,110.1,30.5,109,30.5z M108.8,22.3c-0.9,0-1.6,0.3-2,0.8c-0.4,0.5-0.6,1.3-0.6,2.4v0.3c0,1.3,0.2,2.2,0.6,2.7
			c0.4,0.5,1.1,0.8,2,0.8c0.8,0,1.4-0.3,1.8-1c0.4-0.6,0.7-1.5,0.7-2.6c0-1.1-0.2-2-0.7-2.6C110.2,22.6,109.6,22.3,108.8,22.3z"/>
		<path class="st5" d="M115.9,30.4h-1.4V17.5h1.4V30.4z"/>
		<path class="st5" d="M123.7,30.4l-0.3-1.3h-0.1c-0.4,0.6-0.9,1-1.3,1.2c-0.4,0.2-1,0.3-1.7,0.3c-0.9,0-1.6-0.2-2.1-0.7
			c-0.5-0.5-0.8-1.1-0.8-2c0-1.8,1.5-2.8,4.4-2.9l1.5,0v-0.6c0-0.7-0.2-1.2-0.5-1.6c-0.3-0.3-0.8-0.5-1.5-0.5
			c-0.8,0-1.6,0.2-2.6,0.7l-0.4-1c0.4-0.2,0.9-0.4,1.5-0.6c0.5-0.1,1.1-0.2,1.6-0.2c1.1,0,1.9,0.2,2.4,0.7c0.5,0.5,0.8,1.2,0.8,2.3
			v6.2H123.7z M120.6,29.4c0.9,0,1.5-0.2,2-0.7c0.5-0.5,0.7-1.1,0.7-2v-0.8L122,26c-1.1,0-1.9,0.2-2.3,0.5c-0.5,0.3-0.7,0.8-0.7,1.4
			c0,0.5,0.1,0.9,0.4,1.1C119.7,29.3,120.1,29.4,120.6,29.4z"/>
		<path class="st5" d="M125.5,21.3h1.5l2,5.2c0.4,1.2,0.7,2,0.8,2.6h0.1c0.1-0.3,0.2-0.8,0.4-1.4c0.2-0.7,1-2.8,2.2-6.3h1.5
			l-3.9,10.3c-0.4,1-0.8,1.7-1.3,2.2c-0.5,0.4-1.1,0.6-1.9,0.6c-0.4,0-0.8,0-1.2-0.1v-1.1c0.3,0.1,0.6,0.1,1,0.1
			c0.9,0,1.6-0.5,2-1.6l0.5-1.3L125.5,21.3z"/>
	</g>
	<g>
		<path class="st5" d="M83.6,22.1c0.4,0.4,1.3,1.1,1.3,2.6c0,1.4-0.8,2.1-1.6,2.7c-0.2,0.2-0.5,0.5-0.5,0.9c0,0.4,0.3,0.6,0.5,0.8
			l0.7,0.5c0.8,0.7,1.6,1.3,1.6,2.7c0,1.8-1.7,3.6-5,3.6c-2.7,0-4.1-1.3-4.1-2.7c0-0.7,0.3-1.6,1.5-2.3c1.2-0.7,2.8-0.8,3.6-0.9
			c-0.3-0.3-0.6-0.7-0.6-1.3c0-0.3,0.1-0.5,0.2-0.7c-0.2,0-0.4,0-0.6,0c-2,0-3.1-1.5-3.1-3c0-0.9,0.4-1.8,1.2-2.5
			c1.1-0.9,2.4-1,3.4-1H86l-1.2,0.7H83.6z M82.3,30.6c-0.2,0-0.2,0-0.4,0c-0.2,0-1.2,0-2,0.3c-0.4,0.2-1.6,0.6-1.6,2
			c0,1.3,1.3,2.3,3.3,2.3c1.8,0,2.8-0.9,2.8-2C84.4,32.1,83.7,31.6,82.3,30.6z M82.9,27c0.4-0.4,0.5-1,0.5-1.4
			c0-1.4-0.8-3.5-2.4-3.5c-0.5,0-1,0.2-1.3,0.6c-0.3,0.4-0.4,0.9-0.4,1.4c0,1.3,0.7,3.4,2.4,3.4C82,27.5,82.6,27.3,82.9,27z"/>
		<path class="st5" d="M71.8,30.2c-3,0-4.6-2.3-4.6-4.5c0-2.5,2-4.6,4.9-4.6c2.8,0,4.5,2.2,4.5,4.5C76.6,27.9,74.8,30.2,71.8,30.2z
			 M74.1,28.7c0.5-0.6,0.6-1.4,0.6-2.1c0-1.7-0.8-4.8-3.1-4.8c-0.6,0-1.2,0.2-1.7,0.6c-0.7,0.7-0.9,1.5-0.9,2.3c0,1.9,0.9,5,3.2,5
			C72.9,29.7,73.7,29.3,74.1,28.7z"/>
		<path class="st5" d="M61.6,30.2c-3,0-4.6-2.3-4.6-4.5c0-2.5,2-4.6,4.9-4.6c2.8,0,4.5,2.2,4.5,4.5C66.3,27.9,64.6,30.2,61.6,30.2z
			 M63.9,28.7c0.5-0.6,0.6-1.4,0.6-2.1c0-1.7-0.8-4.8-3.1-4.8c-0.6,0-1.2,0.2-1.7,0.6c-0.7,0.7-0.9,1.5-0.9,2.3c0,1.9,0.9,5,3.2,5
			C62.7,29.7,63.5,29.3,63.9,28.7z"/>
		<path class="st5" d="M55.5,30l-2.7,0.6c-1.1,0.2-2.1,0.3-3.1,0.3c-5.2,0-7.2-3.9-7.2-6.9c0-3.7,2.8-7.1,7.7-7.1c1,0,2,0.2,2.9,0.4
			c1.4,0.4,2.1,0.9,2.5,1.2L54,20l-0.7,0.2l0.5-0.8c-0.6-0.6-1.8-1.8-4.1-1.8c-3,0-5.2,2.3-5.2,5.6c0,3.6,2.6,6.9,6.7,6.9
			c1.2,0,1.8-0.2,2.4-0.5v-3.1l-2.9,0.2l1.5-0.8h4l-0.5,0.5c-0.1,0.1-0.2,0.2-0.2,0.3c0,0.2,0,0.7,0,0.9V30z"/>
		<path class="st5" d="M89.6,29.4c-0.6-0.1-0.8-0.2-0.8-0.9v-0.2V17.7c0,0,0-0.1,0-0.1c0.1-0.7,0.3-0.8,0.9-1.1H87l-1.4,0.7h1.4v0
			l0,0v11.1v0.6c0,0.4-0.1,0.4-0.5,1h3.4l0.7-0.4C90.3,29.5,90,29.4,89.6,29.4z"/>
		<path class="st5" d="M97.3,29.6c-0.2,0.1-0.4,0.2-0.6,0.3c-0.6,0.3-1.3,0.4-1.8,0.4c-0.6,0-1.5,0-2.5-0.7c-1.3-0.9-1.9-2.6-1.9-4
			c0-2.9,2.4-4.4,4.3-4.4c0.7,0,1.4,0.2,1.9,0.5c0.9,0.6,1.2,1.4,1.3,1.9l-4.4,1.8l-1.4,0.1c0.5,2.4,2.1,3.8,3.9,3.8
			c1,0,1.7-0.3,2.3-0.7L97.3,29.6z M95.6,23.9c0.4-0.1,0.5-0.2,0.5-0.5c0-0.8-0.8-1.6-1.9-1.6c-0.8,0-2.2,0.6-2.2,2.6
			c0,0.3,0,0.7,0.1,1L95.6,23.9z"/>
		<g>
			<path class="st5" d="M99.2,21.3v1.2H99v-1.2h-0.4v-0.1h1v0.1H99.2z"/>
			<path class="st5" d="M100.8,22.6v-1.3h0l-0.4,1.3h-0.1l-0.4-1.3h0v1.3h-0.1v-1.4h0.2l0.3,1.1h0l0.3-1.1h0.2v1.4H100.8z"/>
		</g>
	</g>
	<g>
		<path class="st6" d="M46.2,13.2h-0.9c0-0.1-0.1-0.5-0.3-1.1h-1.4c-0.2,0.6-0.3,1-0.3,1.1h-0.9c0-0.1,0.2-0.7,0.7-1.9
			c0.5-1.2,0.7-1.8,0.7-2H45c0,0.1,0.2,0.8,0.6,1.9C46,12.5,46.2,13.1,46.2,13.2z M44.9,11.5c-0.3-1-0.5-1.6-0.5-1.6h0
			c0,0.1-0.2,0.6-0.5,1.6H44.9z"/>
		<path class="st6" d="M50,13.2h-0.7c0-0.1-0.3-0.5-0.8-1.3c-0.6-0.8-0.9-1.4-1-1.7h0c0,0.4,0.1,0.8,0.1,1.2c0,0.5,0,1.1,0,1.8h-0.7
			c0-0.6,0-1.3,0-2c0-0.7,0-1.3,0-1.8h0.9c0,0.1,0.2,0.5,0.7,1.2c0.5,0.8,0.8,1.3,0.9,1.6h0c0-0.4-0.1-0.8-0.1-1.2
			c0-0.5,0-1.1,0-1.6H50c0,0.5,0,1.1,0,1.8C50,11.9,50,12.6,50,13.2z"/>
		<path class="st6" d="M54.3,11.1c0,0.6-0.2,1-0.5,1.5c-0.4,0.4-0.9,0.6-1.5,0.6c-0.3,0-0.7,0-1.2,0c0-0.6,0-1.3,0-2
			c0-0.7,0-1.3,0-1.8h0.5c0.1,0,0.2,0,0.4,0c0.2,0,0.3,0,0.3,0c0.7,0,1.2,0.2,1.5,0.5C54.1,10.2,54.3,10.6,54.3,11.1z M53.5,11.3
			c0-0.4-0.1-0.7-0.3-1c-0.2-0.3-0.6-0.4-1-0.4c-0.1,0-0.2,0-0.3,0c0,0.4,0,0.8,0,1.2c0,0.5,0,0.9,0,1.4c0.1,0,0.3,0,0.4,0
			c0.4,0,0.7-0.1,0.9-0.4C53.4,12,53.5,11.7,53.5,11.3z"/>
		<path class="st6" d="M58.2,13.2h-0.9c-0.2-0.7-0.4-1.1-0.5-1.3c-0.1-0.2-0.3-0.2-0.6-0.2c-0.1,0-0.2,0-0.3,0c0,0.5,0,1,0,1.5h-0.8
			c0-0.6,0-1.3,0-2c0-0.7,0-1.3,0-1.8h0.5c0.1,0,0.2,0,0.4,0c0.2,0,0.4,0,0.5,0c0.9,0,1.3,0.3,1.3,0.9c0,0.5-0.3,0.8-0.8,1v0
			c0.2,0.1,0.4,0.2,0.5,0.5C57.8,12.1,58,12.5,58.2,13.2z M57.1,10.5c0-0.4-0.3-0.6-0.8-0.6c-0.2,0-0.3,0-0.5,0c0,0.3,0,0.7,0,1.2
			c0.1,0,0.2,0,0.3,0C56.8,11.1,57.1,10.9,57.1,10.5z"/>
		<path class="st6" d="M62.4,11.2c0,0.6-0.2,1.1-0.6,1.5c-0.4,0.4-0.8,0.6-1.4,0.6c-0.5,0-1-0.2-1.3-0.5c-0.3-0.4-0.5-0.8-0.5-1.4
			c0-0.6,0.2-1.1,0.6-1.5c0.4-0.4,0.8-0.6,1.4-0.6c0.5,0,1,0.2,1.3,0.5C62.3,10.2,62.4,10.6,62.4,11.2z M61.6,11.3
			c0-0.4-0.1-0.7-0.3-1c-0.2-0.3-0.5-0.4-0.8-0.4c-0.3,0-0.5,0.1-0.7,0.4c-0.2,0.3-0.3,0.6-0.3,1c0,0.4,0.1,0.7,0.3,1
			c0.2,0.3,0.5,0.4,0.8,0.4c0.3,0,0.5-0.1,0.7-0.4C61.5,12,61.6,11.7,61.6,11.3z"/>
		<path class="st6" d="M64.1,13.2h-0.8c0-0.6,0-1.3,0-2c0-0.7,0-1.3,0-1.8h0.8c0,0.5,0,1.1,0,1.8C64.1,11.9,64.1,12.6,64.1,13.2z"/>
		<path class="st6" d="M68.4,11.1c0,0.6-0.2,1-0.5,1.5c-0.4,0.4-0.9,0.6-1.5,0.6c-0.3,0-0.7,0-1.2,0c0-0.6,0-1.3,0-2
			c0-0.7,0-1.3,0-1.8h0.5c0.1,0,0.2,0,0.4,0c0.2,0,0.3,0,0.3,0c0.7,0,1.2,0.2,1.5,0.5C68.2,10.2,68.4,10.6,68.4,11.1z M67.6,11.3
			c0-0.4-0.1-0.7-0.3-1c-0.2-0.3-0.6-0.4-1-0.4c-0.1,0-0.2,0-0.3,0c0,0.4,0,0.8,0,1.2c0,0.5,0,0.9,0,1.4c0.1,0,0.3,0,0.4,0
			c0.4,0,0.7-0.1,0.9-0.4C67.5,12,67.6,11.7,67.6,11.3z"/>
		<path class="st6" d="M74,13.2h-0.9c0-0.1-0.1-0.5-0.3-1.1h-1.4c-0.2,0.6-0.3,1-0.3,1.1h-0.9c0-0.1,0.2-0.7,0.7-1.9
			c0.5-1.2,0.7-1.8,0.7-2h1.1c0,0.1,0.2,0.8,0.6,1.9C73.8,12.5,74,13.1,74,13.2z M72.7,11.5c-0.3-1-0.5-1.6-0.5-1.6h0
			c0,0.1-0.2,0.6-0.5,1.6H72.7z"/>
		<path class="st6" d="M77.5,10.4c0,0.5-0.2,0.8-0.5,1c-0.3,0.2-0.8,0.3-1.3,0.3c-0.1,0-0.2,0-0.2,0c0,0.4,0,0.9,0,1.5h-0.8
			c0-0.6,0-1.2,0-2c0-0.7,0-1.3,0-1.8h0.5c0.1,0,0.2,0,0.4,0c0.2,0,0.4,0,0.5,0c0.4,0,0.7,0.1,0.9,0.3C77.3,9.8,77.5,10,77.5,10.4z
			 M76.7,10.5c0-0.4-0.3-0.6-0.8-0.6c-0.1,0-0.3,0-0.4,0c0,0.4,0,0.8,0,1.3c0,0,0.1,0,0.2,0C76.3,11.2,76.7,11,76.7,10.5z"/>
		<path class="st6" d="M81,10.4c0,0.5-0.2,0.8-0.5,1c-0.3,0.2-0.8,0.3-1.3,0.3c-0.1,0-0.2,0-0.2,0c0,0.4,0,0.9,0,1.5h-0.8
			c0-0.6,0-1.2,0-2c0-0.7,0-1.3,0-1.8h0.5c0.1,0,0.2,0,0.4,0c0.2,0,0.4,0,0.5,0c0.4,0,0.7,0.1,0.9,0.3C80.8,9.8,81,10,81,10.4z
			 M80.2,10.5c0-0.4-0.3-0.6-0.8-0.6c-0.1,0-0.3,0-0.4,0c0,0.4,0,0.8,0,1.3c0,0,0.1,0,0.2,0C79.9,11.2,80.2,11,80.2,10.5z"/>
		<path class="st6" d="M86.7,11.2c0,0.6-0.2,1.1-0.6,1.5s-0.8,0.6-1.4,0.6c-0.5,0-1-0.2-1.3-0.5c-0.3-0.4-0.5-0.8-0.5-1.4
			c0-0.6,0.2-1.1,0.6-1.5c0.4-0.4,0.8-0.6,1.4-0.6c0.5,0,1,0.2,1.3,0.5C86.6,10.2,86.7,10.6,86.7,11.2z M85.9,11.3
			c0-0.4-0.1-0.7-0.3-1c-0.2-0.3-0.5-0.4-0.8-0.4c-0.3,0-0.5,0.1-0.7,0.4c-0.2,0.3-0.3,0.6-0.3,1c0,0.4,0.1,0.7,0.3,1
			c0.2,0.3,0.5,0.4,0.8,0.4c0.3,0,0.5-0.1,0.7-0.4C85.8,12,85.9,11.7,85.9,11.3z"/>
		<path class="st6" d="M90.7,13.2H90c0-0.1-0.3-0.5-0.8-1.3c-0.6-0.8-0.9-1.4-1-1.7h0c0,0.4,0.1,0.8,0.1,1.2c0,0.5,0,1.1,0,1.8h-0.7
			c0-0.6,0-1.3,0-2c0-0.7,0-1.3,0-1.8h0.9c0,0.1,0.2,0.5,0.7,1.2c0.5,0.8,0.8,1.3,0.9,1.6h0c0-0.4-0.1-0.8-0.1-1.2
			c0-0.5,0-1.1,0-1.6h0.7c0,0.5,0,1.1,0,1.8C90.7,11.9,90.7,12.6,90.7,13.2z"/>
	</g>
</g>
</svg>
