<?xml version="1.0" encoding="utf-8"?>
<!-- Generator: Adobe Illustrator 22.0.0, SVG Export Plug-In . SVG Version: 6.00 Build 0)  -->
<svg version="1.1" id="Layer_1" xmlns="http://www.w3.org/2000/svg" xmlns:xlink="http://www.w3.org/1999/xlink" x="0px" y="0px"
	 viewBox="0 0 70 46" style="enable-background:new 0 0 70 46;" xml:space="preserve">
<style type="text/css">
	.st0{fill:#FFFFFF;}
	.st1{fill:url(#SVGID_1_);}
	.st2{fill:url(#SVGID_2_);}
	.st3{fill:url(#SVGID_3_);}
	.st4{fill:url(#SVGID_4_);}
	.st5{fill:url(#SVGID_5_);}
</style>
<g>
	<path class="st0" d="M67,46H3c-1.7,0-3-1.3-3-3V3c0-1.7,1.3-3,3-3h64c1.7,0,3,1.3,3,3v40C70,44.7,68.7,46,67,46z"/>
	<g>
		
			<linearGradient id="SVGID_1_" gradientUnits="userSpaceOnUse" x1="-216.5006" y1="-228.1713" x2="-216.3326" y2="-228.1713" gradientTransform="matrix(70.3176 0 0 43.5515 15266.1406 9962.0176)">
			<stop  offset="0" style="stop-color:#007940"/>
			<stop  offset="0.2285" style="stop-color:#00873F"/>
			<stop  offset="0.7433" style="stop-color:#40A737"/>
			<stop  offset="1" style="stop-color:#5CB531"/>
		</linearGradient>
		<path class="st1" d="M44.7,26.1h2.8c0.1,0,0.3,0,0.3,0c0.5-0.1,1-0.6,1-1.2c0-0.6-0.4-1.1-1-1.2c-0.1,0-0.2,0-0.3,0h-2.8V26.1z"/>
		
			<linearGradient id="SVGID_2_" gradientUnits="userSpaceOnUse" x1="-216.5056" y1="-227.9908" x2="-216.3377" y2="-227.9908" gradientTransform="matrix(70.2592 0 0 170.7188 15253.8506 38945.3008)">
			<stop  offset="0" style="stop-color:#007940"/>
			<stop  offset="0.2285" style="stop-color:#00873F"/>
			<stop  offset="0.7433" style="stop-color:#40A737"/>
			<stop  offset="1" style="stop-color:#5CB531"/>
		</linearGradient>
		<path class="st2" d="M47.1,8.7c-2.6,0-4.8,2.1-4.8,4.8v5h6.8c0.2,0,0.3,0,0.5,0c1.5,0.1,2.7,0.9,2.7,2.2c0,1.1-0.8,2-2.2,2.2v0.1
			c1.6,0.1,2.7,1,2.7,2.3c0,1.4-1.3,2.4-3,2.4h-7.4v9.7h7c2.6,0,4.8-2.1,4.8-4.8V8.7H47.1z"/>
		
			<linearGradient id="SVGID_3_" gradientUnits="userSpaceOnUse" x1="-216.4997" y1="-227.7347" x2="-216.3317" y2="-227.7347" gradientTransform="matrix(70.3204 0 0 43.5788 15266.6826 9945.3818)">
			<stop  offset="0" style="stop-color:#007940"/>
			<stop  offset="0.2285" style="stop-color:#00873F"/>
			<stop  offset="0.7433" style="stop-color:#40A737"/>
			<stop  offset="1" style="stop-color:#5CB531"/>
		</linearGradient>
		<path class="st3" d="M48.4,21c0-0.6-0.4-1.1-1-1.1c-0.1,0-0.2,0-0.3,0h-2.5v2.3h2.5c0.1,0,0.2,0,0.3,0C48,22,48.4,21.6,48.4,21z"
			/>
		
			<linearGradient id="SVGID_4_" gradientUnits="userSpaceOnUse" x1="-214.6576" y1="-227.99" x2="-214.4897" y2="-227.99" gradientTransform="matrix(71.4062 0 0 173.3469 15343.791 39544.3281)">
			<stop  offset="0" style="stop-color:#1F286F"/>
			<stop  offset="0.4751" style="stop-color:#004E94"/>
			<stop  offset="0.8261" style="stop-color:#0066B1"/>
			<stop  offset="1" style="stop-color:#006FBC"/>
		</linearGradient>
		<path class="st4" d="M20.7,8.7c-2.6,0-4.8,2.1-4.8,4.8v11.8c1.3,0.7,2.7,1.1,4.1,1.1c1.7,0,2.5-1,2.5-2.4v-5.6h4.1v5.5
			c0,2.2-1.3,3.9-5.9,3.9c-2.8,0-4.9-0.6-4.9-0.6v10.1h7c2.6,0,4.8-2.1,4.8-4.8V8.7H20.7z"/>
		
			<linearGradient id="SVGID_5_" gradientUnits="userSpaceOnUse" x1="-215.5585" y1="-227.9908" x2="-215.3906" y2="-227.9908" gradientTransform="matrix(69.352 0 0 168.669 14978.4756 38477.9766)">
			<stop  offset="0" style="stop-color:#6C2C2F"/>
			<stop  offset="0.1735" style="stop-color:#882730"/>
			<stop  offset="0.5731" style="stop-color:#BE1833"/>
			<stop  offset="0.8585" style="stop-color:#DC0436"/>
			<stop  offset="1" style="stop-color:#E60039"/>
		</linearGradient>
		<path class="st5" d="M33.9,8.7c-2.6,0-4.8,2.1-4.8,4.8v6.3c1.2-1,3.3-1.7,6.7-1.5c1.8,0.1,3.8,0.6,3.8,0.6v2
			c-1-0.5-2.1-0.9-3.6-1.1c-2.6-0.2-4.1,1.1-4.1,3.3c0,2.2,1.6,3.5,4.1,3.3c1.5-0.1,2.7-0.6,3.6-1.1v2c0,0-1.9,0.5-3.8,0.6
			c-3.4,0.2-5.5-0.5-6.7-1.5v11h7c2.6,0,4.8-2.1,4.8-4.8V8.7H33.9z"/>
	</g>
</g>
</svg>
