<?xml version="1.0" encoding="utf-8"?>
<!-- Generator: Adobe Illustrator 22.0.0, SVG Export Plug-In . SVG Version: 6.00 Build 0)  -->
<svg version="1.1" id="Layer_1" xmlns="http://www.w3.org/2000/svg" xmlns:xlink="http://www.w3.org/1999/xlink" x="0px" y="0px"
	 viewBox="0 0 32 32" style="enable-background:new 0 0 32 32;" xml:space="preserve">
<style type="text/css">
	.st0{fill:#71C2A0;}
</style>
<g>
	<g id="XMLID_829_">
		<path class="st0" d="M5.3,6.4c-0.3,0-0.5-0.1-0.7-0.3c-0.4-0.4-0.4-1,0-1.4c1-1.1,2.2-2,3.5-2.7c0.5-0.3,1.1-0.1,1.4,0.4
			c0.3,0.5,0.1,1.1-0.4,1.4C8,4.4,7,5.2,6,6.1C5.8,6.3,5.6,6.4,5.3,6.4z"/>
	</g>
	<g id="XMLID_828_">
		<path class="st0" d="M16,32c-4.2,0-8.2-1.6-11.2-4.6c-2-1.9-3.4-4.4-4.1-7c-0.6-1.9-0.7-3.9-0.5-5.9c0.1-0.5,0.5-1,1.1-0.9
			c0.5,0.1,1,0.5,0.9,1.1c-0.2,1.8,0,3.5,0.5,5.2c0.7,2.3,1.9,4.4,3.6,6.1c2.7,2.6,6.2,4.1,9.9,4c3.7,0,7.2-1.5,9.9-4.2
			c5.4-5.5,5.4-14.4-0.1-19.8c-3.3-3.3-8-4.7-12.5-3.8c-0.5,0.1-1.1-0.2-1.2-0.8c-0.1-0.5,0.2-1.1,0.8-1.2c5.2-1,10.5,0.6,14.3,4.3
			c6.3,6.2,6.3,16.4,0.1,22.7c-3,3-7,4.7-11.3,4.8C16.1,32,16,32,16,32z"/>
	</g>
	<g id="XMLID_827_">
		<path class="st0" d="M14.7,22.2c-0.3,0-0.6-0.1-0.7-0.3l-4.7-5.3c-0.4-0.4-0.3-1,0.1-1.4s1-0.3,1.4,0.1l3.9,4.4l6.7-9.4
			c0.3-0.4,0.9-0.6,1.4-0.2c0.5,0.3,0.6,0.9,0.2,1.4l-7.4,10.4C15.3,22,15,22.2,14.7,22.2C14.7,22.2,14.7,22.2,14.7,22.2z"/>
	</g>
</g>
</svg>
