<?xml version="1.0" encoding="utf-8"?>
<!-- Generator: Adobe Illustrator 22.0.0, SVG Export Plug-In . SVG Version: 6.00 Build 0)  -->
<svg version="1.1" id="Layer_1" xmlns="http://www.w3.org/2000/svg" xmlns:xlink="http://www.w3.org/1999/xlink" x="0px" y="0px"
	 viewBox="0 0 70 46" style="enable-background:new 0 0 70 46;" xml:space="preserve">
<style type="text/css">
	.st0{fill:#FFFFFF;}
	.st1{fill-rule:evenodd;clip-rule:evenodd;fill:#F9B41D;}
	.st2{fill-rule:evenodd;clip-rule:evenodd;fill:#E30520;}
	.st3{fill-rule:evenodd;clip-rule:evenodd;fill:#FFFFFF;}
	.st4{fill:none;stroke:#FFFFFF;stroke-width:0.216;stroke-miterlimit:2.6131;}
</style>
<g>
	<path class="st0" d="M67,46H3c-1.7,0-3-1.3-3-3V3c0-1.7,1.3-3,3-3h64c1.7,0,3,1.3,3,3v40C70,44.7,68.7,46,67,46z"/>
	<g>
		<polygon class="st1" points="44.5,37.2 45.3,37.2 46,37.2 46.7,37.1 47.4,37 48.1,36.8 48.8,36.6 49.4,36.4 50.1,36.1 50.7,35.8 
			51.3,35.5 51.9,35.2 52.5,34.8 53.1,34.4 53.6,34 54.1,33.5 54.6,33.1 55.1,32.6 55.5,32 56,31.5 56.4,31 56.7,30.4 57.1,29.8 
			57.4,29.2 57.7,28.5 57.9,27.9 58.2,27.2 58.3,26.5 58.5,25.9 58.6,25.1 58.7,24.4 58.8,23.7 58.8,23 58.8,22.2 58.7,21.5 
			58.6,20.8 58.5,20.1 58.3,19.4 58.2,18.8 57.9,18.1 57.7,17.4 57.4,16.8 57.1,16.2 56.7,15.6 56.4,15 56,14.5 55.5,13.9 
			55.1,13.4 54.6,12.9 54.1,12.5 53.6,12 53.1,11.6 52.5,11.2 51.9,10.8 51.3,10.5 50.7,10.2 50.1,9.9 49.4,9.6 48.8,9.4 48.1,9.2 
			47.4,9 46.7,8.9 46,8.8 45.3,8.8 44.5,8.8 43.8,8.8 43.1,8.8 42.4,8.9 41.7,9 41,9.2 40.3,9.4 39.6,9.6 39,9.9 38.4,10.2 
			37.7,10.5 37.2,10.8 36.6,11.2 36,11.6 35.5,12 35,12.5 34.5,12.9 34,13.4 33.6,13.9 33.1,14.5 32.7,15 32.4,15.6 32,16.2 
			31.7,16.8 31.4,17.4 31.2,18.1 31,18.8 30.8,19.4 30.6,20.1 30.5,20.8 30.4,21.5 30.3,22.2 30.3,23 30.3,23.7 30.4,24.4 
			30.5,25.1 30.6,25.9 30.8,26.5 31,27.2 31.2,27.9 31.4,28.5 31.7,29.2 32,29.8 32.4,30.4 32.7,31 33.1,31.5 33.6,32 34,32.6 
			34.5,33.1 35,33.5 35.5,34 36,34.4 36.6,34.8 37.2,35.2 37.7,35.5 38.4,35.8 39,36.1 39.6,36.4 40.3,36.6 41,36.8 41.7,37 
			42.4,37.1 43.1,37.2 43.8,37.2 44.5,37.2 44.5,37.2 		"/>
		<polygon class="st2" points="25.5,37.2 26.2,37.2 26.9,37.2 27.6,37.1 28.3,37 29,36.8 29.7,36.6 30.4,36.4 31,36.1 31.6,35.8 
			32.3,35.5 32.8,35.2 33.4,34.8 34,34.4 34.5,34 35,33.5 35.5,33.1 36,32.6 36.4,32 36.9,31.5 37.3,31 37.6,30.4 38,29.8 
			38.3,29.2 38.6,28.5 38.8,27.9 39,27.2 39.2,26.5 39.4,25.9 39.5,25.1 39.6,24.4 39.7,23.7 39.7,23 39.7,22.2 39.6,21.5 
			39.5,20.8 39.4,20.1 39.2,19.4 39,18.8 38.8,18.1 38.6,17.4 38.3,16.8 38,16.2 37.6,15.6 37.3,15 36.9,14.5 36.4,13.9 36,13.4 
			35.5,12.9 35,12.5 34.5,12 34,11.6 33.4,11.2 32.8,10.8 32.3,10.5 31.6,10.2 31,9.9 30.4,9.6 29.7,9.4 29,9.2 28.3,9 27.6,8.9 
			26.9,8.8 26.2,8.8 25.5,8.8 24.7,8.8 24,8.8 23.3,8.9 22.6,9 21.9,9.2 21.2,9.4 20.6,9.6 19.9,9.9 19.3,10.2 18.7,10.5 18.1,10.8 
			17.5,11.2 16.9,11.6 16.4,12 15.9,12.5 15.4,12.9 14.9,13.4 14.5,13.9 14,14.5 13.6,15 13.3,15.6 12.9,16.2 12.6,16.8 12.3,17.4 
			12.1,18.1 11.8,18.8 11.7,19.4 11.5,20.1 11.4,20.8 11.3,21.5 11.2,22.2 11.2,23 11.2,23.7 11.3,24.4 11.4,25.1 11.5,25.9 
			11.7,26.5 11.8,27.2 12.1,27.9 12.3,28.5 12.6,29.2 12.9,29.8 13.3,30.4 13.6,31 14,31.5 14.5,32 14.9,32.6 15.4,33.1 15.9,33.5 
			16.4,34 16.9,34.4 17.5,34.8 18.1,35.2 18.7,35.5 19.3,35.8 19.9,36.1 20.6,36.4 21.2,36.6 21.9,36.8 22.6,37 23.3,37.1 24,37.2 
			24.7,37.2 25.5,37.2 25.5,37.2 		"/>
		<polygon class="st1" points="33.3,14.2 40.9,14.2 40.9,13.4 34,13.4 33.3,14.2 33.3,14.2 		"/>
		<polygon class="st1" points="32.2,15.9 40.9,15.9 40.9,15.2 32.7,15.2 32.2,15.9 32.2,15.9 		"/>
		<polygon class="st1" points="31.4,17.7 40.9,17.7 40.9,16.9 31.7,16.9 31.4,17.7 31.4,17.7 		"/>
		<polygon class="st1" points="30.8,19.4 40.9,19.4 40.9,18.6 31,18.6 30.8,19.4 30.8,19.4 		"/>
		<polygon class="st1" points="31.1,27.7 40.9,27.7 40.9,26.9 30.9,26.9 31.1,27.7 31.1,27.7 		"/>
		<polygon class="st1" points="31.8,29.4 40.9,29.4 40.9,28.6 31.5,28.6 31.8,29.4 31.8,29.4 		"/>
		<polygon class="st1" points="32.9,31.1 40.9,31.1 40.9,30.3 32.4,30.3 32.9,31.1 32.9,31.1 		"/>
		<polygon class="st1" points="34.3,32.8 40.9,32.8 40.9,32.1 33.6,32.1 34.3,32.8 34.3,32.8 		"/>
		<polygon class="st1" points="30.4,21.1 40.9,21.1 40.9,20.3 30.6,20.3 30.4,21.1 30.4,21.1 		"/>
		<polygon class="st1" points="36.8,26 40.8,26 40.8,25.2 37,25.2 36.8,26 36.8,26 		"/>
		<polygon class="st1" points="37.1,24.3 40.8,24.3 40.8,23.5 37.3,23.5 37.1,24.3 37.1,24.3 		"/>
		<polygon class="st1" points="30.2,23.5 31.2,23.5 31.2,24.3 30.2,24.3 30.2,23.5 30.2,23.5 		"/>
		<polygon class="st3" points="28.2,22.5 28.2,22.5 28.1,22.5 28,22.5 28,22.5 27.9,22.5 27.9,22.5 27.8,22.5 27.7,22.5 27.7,22.5 
			27.6,22.5 27.5,22.5 27.4,22.4 27.3,22.4 27.2,22.5 27.1,22.5 26.9,22.5 26.8,22.5 26.7,22.5 26.7,22.5 26.6,22.6 26.5,22.6 
			26.5,22.6 26.4,22.7 26.4,22.7 26.3,22.8 26.3,22.8 26.3,22.9 26.3,22.9 26.3,23 26.3,23.1 26.4,23.1 26.4,23.2 26.5,23.3 
			26.6,23.4 26.8,23.4 26.9,23.5 27.1,23.5 27.2,23.6 27.4,23.6 27.5,23.7 27.7,23.8 27.8,23.9 27.9,24 28,24.1 28.1,24.3 
			28.2,24.5 28.2,24.8 28.2,25.1 28.1,25.3 28.1,25.5 28,25.7 27.9,25.9 27.8,26 27.7,26.1 27.5,26.2 27.4,26.3 27.2,26.4 
			27.1,26.5 26.9,26.5 26.7,26.5 26.6,26.6 26.4,26.6 26.3,26.6 26.1,26.6 25.9,26.6 25.7,26.6 25.5,26.6 25.4,26.6 25.2,26.6 
			25.1,26.6 25,26.6 24.9,26.6 24.8,26.5 24.7,26.5 24.6,26.5 24.5,26.5 24.4,26.5 24.4,26.4 24.3,26.4 24.2,26.4 24.4,25.3 
			24.5,25.3 24.5,25.3 24.6,25.4 24.7,25.4 24.7,25.4 24.8,25.4 24.9,25.4 25.1,25.5 25.2,25.5 25.3,25.5 25.4,25.5 25.6,25.5 
			25.7,25.5 25.8,25.5 26,25.5 26.1,25.5 26.3,25.5 26.4,25.5 26.5,25.4 26.5,25.3 26.6,25.3 26.6,25.2 26.6,25.1 26.7,25.1 
			26.7,24.9 26.6,24.8 26.5,24.7 26.4,24.6 26.3,24.5 26.1,24.5 25.9,24.4 25.7,24.3 25.5,24.2 25.4,24.1 25.2,24 25,23.9 
			24.9,23.7 24.8,23.5 24.8,23.2 24.8,22.9 24.8,22.7 24.9,22.5 24.9,22.4 25,22.2 25,22.1 25.1,22 25.2,21.8 25.3,21.7 25.5,21.6 
			25.6,21.6 25.8,21.5 26,21.4 26.2,21.4 26.5,21.4 26.7,21.3 27,21.3 27.2,21.3 27.3,21.3 27.5,21.3 27.6,21.3 27.7,21.4 
			27.9,21.4 27.9,21.4 28,21.4 28.1,21.4 28.2,21.4 28.2,21.4 28.3,21.4 28.4,21.4 28.4,21.4 28.4,21.5 28.5,21.5 28.2,22.5 
			28.2,22.5 		"/>
		<polyline class="st4" points="28.2,22.5 28.2,22.5 28.2,22.5 28.1,22.5 28,22.5 28,22.5 27.9,22.5 27.9,22.5 27.8,22.5 27.7,22.5 
			27.7,22.5 27.6,22.5 27.5,22.5 27.4,22.4 27.3,22.4 27.2,22.5 27.1,22.5 26.9,22.5 26.9,22.5 26.8,22.5 26.7,22.5 26.7,22.5 
			26.6,22.6 26.5,22.6 26.5,22.6 26.4,22.7 26.4,22.7 26.3,22.8 26.3,22.8 26.3,22.9 26.3,22.9 26.3,23 26.3,23.1 26.4,23.1 
			26.4,23.2 26.4,23.2 26.5,23.3 26.6,23.4 26.8,23.4 26.9,23.5 27.1,23.5 27.2,23.6 27.4,23.6 27.5,23.7 27.7,23.8 27.8,23.9 
			27.9,24 28,24.1 28.1,24.3 28.2,24.5 28.2,24.8 28.2,25.1 28.2,25.1 28.1,25.3 28.1,25.5 28,25.7 27.9,25.9 27.8,26 27.7,26.1 
			27.5,26.2 27.4,26.3 27.2,26.4 27.1,26.5 26.9,26.5 26.7,26.5 26.6,26.6 26.4,26.6 26.3,26.6 26.1,26.6 26.1,26.6 25.9,26.6 
			25.7,26.6 25.5,26.6 25.4,26.6 25.2,26.6 25.1,26.6 25,26.6 24.9,26.6 24.8,26.5 24.7,26.5 24.6,26.5 24.5,26.5 24.4,26.5 
			24.4,26.4 24.3,26.4 24.2,26.4 24.4,25.3 24.4,25.3 24.5,25.3 24.5,25.3 24.6,25.4 24.7,25.4 24.7,25.4 24.8,25.4 24.9,25.4 
			25.1,25.5 25.2,25.5 25.3,25.5 25.4,25.5 25.6,25.5 25.7,25.5 25.8,25.5 26,25.5 26.1,25.5 26.1,25.5 26.3,25.5 26.4,25.5 
			26.5,25.4 26.5,25.3 26.6,25.3 26.6,25.2 26.6,25.1 26.7,25.1 26.7,25.1 26.7,24.9 26.6,24.8 26.5,24.7 26.4,24.6 26.3,24.5 
			26.1,24.5 25.9,24.4 25.7,24.3 25.5,24.2 25.4,24.1 25.2,24 25,23.9 24.9,23.7 24.8,23.5 24.8,23.2 24.8,22.9 24.8,22.9 
			24.8,22.7 24.9,22.5 24.9,22.4 25,22.2 25,22.1 25.1,22 25.2,21.8 25.3,21.7 25.5,21.6 25.6,21.6 25.8,21.5 26,21.4 26.2,21.4 
			26.5,21.4 26.7,21.3 27,21.3 27,21.3 27.2,21.3 27.3,21.3 27.5,21.3 27.6,21.3 27.7,21.4 27.9,21.4 27.9,21.4 28,21.4 28.1,21.4 
			28.2,21.4 28.2,21.4 28.3,21.4 28.4,21.4 28.4,21.4 28.4,21.5 28.5,21.5 28.2,22.5 		"/>
		<polygon class="st3" points="29.4,20.3 30.7,20.3 30.5,21.4 31.3,21.4 31.1,22.5 30.3,22.5 29.8,25.2 29.8,25.3 29.8,25.4 
			29.9,25.4 30,25.5 30,25.5 30.1,25.5 30.2,25.5 30.4,25.6 30.5,25.6 30.6,25.5 30.6,25.5 30.7,25.5 30.8,25.5 30.8,25.5 
			30.9,25.5 30.9,25.5 30.7,26.4 30.7,26.4 30.6,26.4 30.6,26.4 30.6,26.4 30.5,26.5 30.5,26.5 30.5,26.5 30.4,26.5 30.4,26.5 
			30.3,26.5 30.3,26.5 30.2,26.5 30.1,26.5 30.1,26.6 30,26.6 29.9,26.6 29.5,26.6 29.3,26.6 29.2,26.5 29,26.5 28.9,26.5 
			28.8,26.4 28.7,26.4 28.6,26.3 28.5,26.3 28.5,26.2 28.5,26.1 28.4,26 28.4,25.9 28.4,25.8 28.4,25.7 28.4,25.6 28.5,25.5 
			29.4,20.3 29.4,20.3 		"/>
		<polyline class="st4" points="29.4,20.3 30.7,20.3 30.5,21.4 31.3,21.4 31.1,22.5 30.3,22.5 29.8,25.2 29.8,25.2 29.8,25.3 
			29.8,25.4 29.9,25.4 30,25.5 30,25.5 30.1,25.5 30.2,25.5 30.4,25.6 30.4,25.6 30.5,25.6 30.6,25.5 30.6,25.5 30.7,25.5 
			30.8,25.5 30.8,25.5 30.9,25.5 30.9,25.5 30.7,26.4 30.7,26.4 30.7,26.4 30.6,26.4 30.6,26.4 30.6,26.4 30.5,26.5 30.5,26.5 
			30.5,26.5 30.4,26.5 30.4,26.5 30.3,26.5 30.3,26.5 30.2,26.5 30.1,26.5 30.1,26.6 30,26.6 29.9,26.6 29.5,26.6 29.5,26.6 
			29.3,26.6 29.2,26.5 29,26.5 28.9,26.5 28.8,26.4 28.7,26.4 28.6,26.3 28.5,26.3 28.5,26.2 28.5,26.1 28.4,26 28.4,25.9 
			28.4,25.8 28.4,25.7 28.4,25.6 28.5,25.5 29.4,20.3 		"/>
		<polygon class="st3" points="32.4,24.3 32.4,24.4 32.3,24.5 32.4,24.6 32.4,24.7 32.4,24.8 32.4,24.9 32.5,24.9 32.6,25 
			32.6,25.1 32.7,25.2 32.8,25.3 32.9,25.3 32.9,25.4 33,25.4 33.1,25.4 33.2,25.5 33.4,25.5 33.5,25.5 33.6,25.5 33.7,25.5 
			33.9,25.5 34,25.5 34.1,25.5 34.2,25.5 34.4,25.5 34.5,25.5 34.6,25.4 34.8,25.4 34.9,25.3 35,25.3 35.2,25.2 35.3,25.1 
			35.1,26.3 35,26.3 35,26.4 34.9,26.4 34.8,26.4 34.7,26.5 34.7,26.5 34.6,26.5 34.5,26.5 34.4,26.5 34.3,26.5 34.2,26.6 
			34.1,26.6 34,26.6 33.9,26.6 33.7,26.6 33.6,26.6 33.3,26.6 33.1,26.5 32.8,26.5 32.6,26.5 32.4,26.4 32.1,26.3 31.9,26.2 
			31.7,26 31.5,25.9 31.4,25.7 31.2,25.5 31.1,25.2 31,24.9 31,24.6 31,24.2 31,23.8 31,23.7 31,23.5 31.1,23.3 31.1,23.1 
			31.2,22.9 31.3,22.7 31.4,22.5 31.5,22.3 31.7,22.1 31.9,21.9 32.1,21.8 32.3,21.6 32.6,21.5 32.9,21.4 33.3,21.4 33.7,21.3 
			33.8,21.3 34,21.4 34.2,21.4 34.4,21.4 34.6,21.5 34.8,21.6 35,21.7 35.1,21.8 35.3,22 35.4,22.2 35.5,22.4 35.6,22.7 35.6,23 
			35.6,23.3 35.6,23.7 35.5,24.1 35.5,24.4 32,24.4 32.2,23.4 34.3,23.4 34.3,23.3 34.3,23.2 34.3,23.1 34.3,23 34.2,22.9 
			34.2,22.8 34.2,22.7 34.1,22.7 34.1,22.6 34,22.6 33.9,22.5 33.9,22.5 33.8,22.4 33.7,22.4 33.6,22.4 33.5,22.4 33.4,22.4 
			33.4,22.4 33.3,22.4 33.2,22.5 33.1,22.5 33,22.5 33,22.6 32.9,22.7 32.8,22.7 32.8,22.8 32.7,22.9 32.7,23 32.6,23 32.6,23.1 
			32.6,23.2 32.6,23.3 32.4,24.3 32.4,24.3 		"/>
		<polyline class="st4" points="32.4,24.3 32.4,24.3 32.4,24.4 32.3,24.5 32.4,24.6 32.4,24.7 32.4,24.8 32.4,24.9 32.5,24.9 
			32.6,25 32.6,25.1 32.7,25.2 32.8,25.3 32.9,25.3 32.9,25.4 33,25.4 33.1,25.4 33.2,25.5 33.2,25.5 33.4,25.5 33.5,25.5 
			33.6,25.5 33.7,25.5 33.9,25.5 34,25.5 34.1,25.5 34.2,25.5 34.4,25.5 34.5,25.5 34.6,25.4 34.8,25.4 34.9,25.3 35,25.3 
			35.2,25.2 35.3,25.1 35.1,26.3 35.1,26.3 35,26.3 35,26.4 34.9,26.4 34.8,26.4 34.7,26.5 34.7,26.5 34.6,26.5 34.5,26.5 
			34.4,26.5 34.3,26.5 34.2,26.6 34.1,26.6 34,26.6 33.9,26.6 33.7,26.6 33.6,26.6 33.6,26.6 33.3,26.6 33.1,26.5 32.8,26.5 
			32.6,26.5 32.4,26.4 32.1,26.3 31.9,26.2 31.7,26 31.5,25.9 31.4,25.7 31.2,25.5 31.1,25.2 31,24.9 31,24.6 31,24.2 31,23.8 
			31,23.8 31,23.7 31,23.5 31.1,23.3 31.1,23.1 31.2,22.9 31.3,22.7 31.4,22.5 31.5,22.3 31.7,22.1 31.9,21.9 32.1,21.8 32.3,21.6 
			32.6,21.5 32.9,21.4 33.3,21.4 33.7,21.3 33.7,21.3 33.8,21.3 34,21.4 34.2,21.4 34.4,21.4 34.6,21.5 34.8,21.6 35,21.7 
			35.1,21.8 35.3,22 35.4,22.2 35.5,22.4 35.6,22.7 35.6,23 35.6,23.3 35.6,23.7 35.5,24.1 35.5,24.4 32,24.4 32.2,23.4 34.3,23.4 
			34.3,23.4 34.3,23.3 34.3,23.2 34.3,23.1 34.3,23 34.2,22.9 34.2,22.8 34.2,22.7 34.1,22.7 34.1,22.6 34,22.6 33.9,22.5 
			33.9,22.5 33.8,22.4 33.7,22.4 33.6,22.4 33.5,22.4 33.5,22.4 33.4,22.4 33.4,22.4 33.3,22.4 33.2,22.5 33.1,22.5 33,22.5 
			33,22.6 32.9,22.7 32.8,22.7 32.8,22.8 32.7,22.9 32.7,23 32.6,23 32.6,23.1 32.6,23.2 32.6,23.3 32.4,24.3 		"/>
		<polygon class="st3" points="43.8,21.7 43.8,21.7 43.7,21.7 43.6,21.6 43.6,21.6 43.5,21.6 43.4,21.5 43.3,21.5 43.2,21.5 
			43.1,21.5 43.1,21.4 43,21.4 42.9,21.4 42.7,21.4 42.6,21.4 42.5,21.4 42.4,21.4 42.3,21.4 42.2,21.4 42,21.4 41.9,21.4 
			41.8,21.5 41.6,21.5 41.5,21.6 41.4,21.7 41.2,21.8 41.1,21.9 41,22.1 40.9,22.2 40.8,22.4 40.7,22.7 40.6,23 40.5,23.3 
			40.5,23.4 40.4,23.6 40.4,23.8 40.4,23.9 40.4,24.1 40.5,24.3 40.5,24.4 40.6,24.5 40.6,24.7 40.7,24.8 40.8,24.9 41,25 
			41.1,25.1 41.2,25.2 41.4,25.2 41.6,25.3 41.6,25.3 41.7,25.3 41.8,25.3 41.9,25.3 42,25.3 42.1,25.3 42.2,25.3 42.3,25.3 
			42.5,25.3 42.6,25.3 42.7,25.2 42.8,25.2 43,25.2 43.1,25.1 43.2,25 43.3,24.9 43.1,26.2 43,26.2 43,26.3 43,26.3 42.9,26.3 
			42.9,26.4 42.8,26.4 42.7,26.4 42.6,26.5 42.5,26.5 42.4,26.5 42.2,26.5 42.1,26.6 41.9,26.6 41.7,26.6 41.4,26.6 41.2,26.6 
			40.9,26.5 40.7,26.5 40.5,26.4 40.3,26.3 40.1,26.2 39.9,26.1 39.7,25.9 39.5,25.7 39.3,25.5 39.2,25.2 39.1,25 39,24.7 
			38.9,24.4 38.9,24 38.9,23.6 39,23.2 39,23 39.1,22.8 39.1,22.7 39.2,22.5 39.2,22.3 39.3,22.1 39.3,22 39.4,21.8 39.5,21.7 
			39.6,21.6 39.6,21.4 39.7,21.3 39.8,21.2 39.9,21.1 40,21 40.1,20.9 40.2,20.8 40.3,20.7 40.4,20.6 40.6,20.5 40.7,20.4 
			40.8,20.4 41,20.3 41.1,20.3 41.2,20.2 41.4,20.2 41.5,20.1 41.7,20.1 41.9,20.1 42,20.1 42.2,20.1 42.4,20.1 42.6,20.1 
			42.7,20.1 42.8,20.1 43,20.1 43.1,20.1 43.3,20.1 43.4,20.2 43.5,20.2 43.6,20.2 43.7,20.3 43.8,20.3 43.9,20.3 43.9,20.3 
			44,20.4 44,20.4 44.1,20.4 43.8,21.7 43.8,21.7 		"/>
		<polyline class="st4" points="43.8,21.7 43.8,21.7 43.8,21.7 43.7,21.7 43.6,21.6 43.6,21.6 43.5,21.6 43.4,21.5 43.3,21.5 
			43.2,21.5 43.1,21.5 43.1,21.4 43,21.4 42.9,21.4 42.7,21.4 42.6,21.4 42.5,21.4 42.4,21.4 42.4,21.4 42.3,21.4 42.2,21.4 
			42,21.4 41.9,21.4 41.8,21.5 41.6,21.5 41.5,21.6 41.4,21.7 41.2,21.8 41.1,21.9 41,22.1 40.9,22.2 40.8,22.4 40.7,22.7 40.6,23 
			40.5,23.3 40.5,23.3 40.5,23.4 40.4,23.6 40.4,23.8 40.4,23.9 40.4,24.1 40.5,24.3 40.5,24.4 40.6,24.5 40.6,24.7 40.7,24.8 
			40.8,24.9 41,25 41.1,25.1 41.2,25.2 41.4,25.2 41.6,25.3 41.6,25.3 41.6,25.3 41.7,25.3 41.8,25.3 41.9,25.3 42,25.3 42.1,25.3 
			42.2,25.3 42.3,25.3 42.5,25.3 42.6,25.3 42.7,25.2 42.8,25.2 43,25.2 43.1,25.1 43.2,25 43.3,24.9 43.1,26.2 43.1,26.2 43,26.2 
			43,26.3 43,26.3 42.9,26.3 42.9,26.4 42.8,26.4 42.7,26.4 42.6,26.5 42.5,26.5 42.4,26.5 42.2,26.5 42.1,26.6 41.9,26.6 
			41.7,26.6 41.4,26.6 41.2,26.6 41.2,26.6 40.9,26.5 40.7,26.5 40.5,26.4 40.3,26.3 40.1,26.2 39.9,26.1 39.7,25.9 39.5,25.7 
			39.3,25.5 39.2,25.2 39.1,25 39,24.7 38.9,24.4 38.9,24 38.9,23.6 39,23.2 39,23.2 39,23 39.1,22.8 39.1,22.7 39.2,22.5 
			39.2,22.3 39.3,22.1 39.3,22 39.4,21.8 39.5,21.7 39.6,21.6 39.6,21.4 39.7,21.3 39.8,21.2 39.9,21.1 40,21 40.1,20.9 40.2,20.8 
			40.3,20.7 40.4,20.6 40.6,20.5 40.7,20.4 40.8,20.4 41,20.3 41.1,20.3 41.2,20.2 41.4,20.2 41.5,20.1 41.7,20.1 41.9,20.1 
			42,20.1 42.2,20.1 42.4,20.1 42.4,20.1 42.6,20.1 42.7,20.1 42.8,20.1 43,20.1 43.1,20.1 43.3,20.1 43.4,20.2 43.5,20.2 
			43.6,20.2 43.7,20.3 43.8,20.3 43.9,20.3 43.9,20.3 44,20.4 44,20.4 44.1,20.4 43.8,21.7 		"/>
		<polygon class="st3" points="55.7,26.6 54.3,26.6 54.4,26 54.4,26 54.3,26.1 54.3,26.2 54.2,26.3 54.1,26.3 54,26.4 53.9,26.4 
			53.8,26.5 53.7,26.5 53.6,26.6 53.6,26.6 53.5,26.6 53.4,26.6 53.3,26.6 53.2,26.6 53.1,26.6 53,26.6 52.7,26.6 52.5,26.6 
			52.3,26.5 52.1,26.4 51.9,26.2 51.8,26.1 51.6,25.9 51.5,25.7 51.4,25.5 51.4,25.3 51.3,25 51.3,24.8 51.3,24.5 51.3,24.3 
			51.3,24 51.3,23.8 51.4,23.5 51.5,23.2 51.6,23 51.7,22.8 51.8,22.6 52,22.4 52.1,22.2 52.3,22 52.4,21.9 52.6,21.8 52.8,21.7 
			53,21.6 53.2,21.5 53.4,21.5 53.6,21.4 53.8,21.4 53.9,21.4 54,21.5 54.2,21.5 54.3,21.5 54.4,21.5 54.5,21.6 54.6,21.6 
			54.7,21.7 54.7,21.8 54.8,21.8 54.9,21.9 54.9,21.9 55,22 55,22.1 55.1,22.1 55.1,22.2 55.1,22.2 55.4,20.3 56.7,20.3 55.7,26.6 
			55.7,26.6 		"/>
		<polyline class="st4" points="55.7,26.6 54.3,26.6 54.4,26 54.4,26 54.4,26 54.3,26.1 54.3,26.2 54.2,26.3 54.1,26.3 54,26.4 
			53.9,26.4 53.8,26.5 53.7,26.5 53.6,26.6 53.6,26.6 53.5,26.6 53.4,26.6 53.3,26.6 53.2,26.6 53.1,26.6 53,26.6 53,26.6 
			52.7,26.6 52.5,26.6 52.3,26.5 52.1,26.4 51.9,26.2 51.8,26.1 51.6,25.9 51.5,25.7 51.4,25.5 51.4,25.3 51.3,25 51.3,24.8 
			51.3,24.5 51.3,24.3 51.3,24 51.3,23.8 51.3,23.8 51.4,23.5 51.5,23.2 51.6,23 51.7,22.8 51.8,22.6 52,22.4 52.1,22.2 52.3,22 
			52.4,21.9 52.6,21.8 52.8,21.7 53,21.6 53.2,21.5 53.4,21.5 53.6,21.4 53.8,21.4 53.8,21.4 53.9,21.4 54,21.5 54.2,21.5 
			54.3,21.5 54.4,21.5 54.5,21.6 54.6,21.6 54.7,21.7 54.7,21.8 54.8,21.8 54.9,21.9 54.9,21.9 55,22 55,22.1 55.1,22.1 55.1,22.2 
			55.1,22.2 55.4,20.3 56.7,20.3 55.7,26.6 		"/>
		<polygon class="st1" points="53.5,25.4 53.6,25.4 53.7,25.4 53.8,25.3 54,25.3 54.1,25.2 54.2,25.2 54.2,25.1 54.3,25 54.4,24.9 
			54.5,24.8 54.5,24.7 54.6,24.6 54.6,24.4 54.7,24.3 54.7,24.2 54.7,24.1 54.8,23.9 54.8,23.8 54.8,23.7 54.8,23.5 54.7,23.4 
			54.7,23.3 54.7,23.2 54.7,23.1 54.6,23 54.6,22.9 54.5,22.8 54.4,22.7 54.3,22.7 54.2,22.6 54.2,22.6 54.1,22.6 53.9,22.6 
			53.8,22.6 53.7,22.7 53.6,22.7 53.5,22.8 53.4,22.8 53.3,22.9 53.2,23 53.2,23.1 53.1,23.2 53,23.3 53,23.5 52.9,23.6 52.9,23.7 
			52.8,23.9 52.8,24 52.8,24.2 52.8,24.5 52.8,24.7 52.9,24.9 53,25.1 53.1,25.3 53.3,25.4 53.5,25.4 53.5,25.4 		"/>
		<polygon class="st3" points="24,25.5 23.8,26.6 22.6,26.6 22.6,26.4 22.6,26.2 22.7,26.1 22.7,26 22.6,26.1 22.5,26.1 22.4,26.2 
			22.3,26.3 22.2,26.4 22.1,26.4 22,26.5 21.8,26.5 21.7,26.6 21.6,26.6 21.4,26.6 21.3,26.6 21.1,26.7 21,26.7 20.9,26.6 
			20.7,26.6 20.6,26.6 20.4,26.5 20.3,26.5 20.2,26.4 20.1,26.3 20,26.2 19.9,26.1 19.8,26 19.8,25.9 19.7,25.8 19.7,25.7 
			19.6,25.6 19.6,25.5 19.6,25.4 19.6,25.3 19.6,25.2 19.6,25 19.6,24.8 19.7,24.7 19.8,24.5 19.8,24.3 19.9,24.2 20,24.1 20.1,24 
			20.3,23.8 20.4,23.7 20.5,23.7 20.7,23.6 20.8,23.5 21,23.5 21.1,23.4 21.3,23.4 21.3,23.4 21.3,23.4 21.4,23.4 21.4,23.4 
			21.5,23.4 21.6,23.4 21.6,23.3 21.7,23.3 21.8,23.3 21.9,23.3 22,23.3 22,23.3 22.1,23.3 22.2,23.3 22.3,23.3 22.3,23.3 
			22.4,23.3 22.5,23.3 22.6,23.3 22.7,23.3 22.8,23.3 22.9,23.3 22.9,23.3 23,23.3 23,23.3 23,23.2 23,23.1 23,23 23,22.9 23,22.8 
			22.9,22.7 22.8,22.6 22.7,22.6 22.6,22.5 22.5,22.5 22.4,22.5 22.3,22.5 22.1,22.5 22,22.5 21.8,22.5 21.7,22.5 21.5,22.5 
			21.4,22.5 21.2,22.5 21.1,22.6 20.9,22.6 20.8,22.6 20.7,22.6 20.6,22.7 20.5,22.7 20.4,22.7 20.4,22.8 20.7,21.6 20.8,21.6 
			20.9,21.5 21,21.5 21.2,21.5 21.3,21.4 21.4,21.4 21.5,21.4 21.7,21.4 21.8,21.4 21.9,21.4 22.1,21.4 22.2,21.4 22.4,21.4 
			22.5,21.4 22.7,21.4 22.9,21.4 23,21.4 23.1,21.4 23.3,21.4 23.4,21.5 23.6,21.5 23.7,21.6 23.9,21.7 24,21.8 24.1,21.9 24.2,22 
			24.3,22.1 24.4,22.3 24.5,22.4 24.5,22.6 24.5,22.8 24.5,23 24,25.5 24,25.5 		"/>
		<polyline class="st4" points="24,25.5 23.8,26.6 22.6,26.6 22.6,26.6 22.6,26.4 22.6,26.2 22.7,26.1 22.7,26 22.7,26 22.6,26.1 
			22.5,26.1 22.4,26.2 22.3,26.3 22.2,26.4 22.1,26.4 22,26.5 21.8,26.5 21.7,26.6 21.6,26.6 21.4,26.6 21.3,26.6 21.1,26.7 
			21,26.7 20.9,26.6 20.7,26.6 20.7,26.6 20.6,26.6 20.4,26.5 20.3,26.5 20.2,26.4 20.1,26.3 20,26.2 19.9,26.1 19.8,26 19.8,25.9 
			19.7,25.8 19.7,25.7 19.6,25.6 19.6,25.5 19.6,25.4 19.6,25.3 19.6,25.2 19.6,25.2 19.6,25 19.6,24.8 19.7,24.7 19.8,24.5 
			19.8,24.3 19.9,24.2 20,24.1 20.1,24 20.3,23.8 20.4,23.7 20.5,23.7 20.7,23.6 20.8,23.5 21,23.5 21.1,23.4 21.3,23.4 21.3,23.4 
			21.3,23.4 21.3,23.4 21.4,23.4 21.4,23.4 21.5,23.4 21.6,23.4 21.6,23.3 21.7,23.3 21.8,23.3 21.9,23.3 22,23.3 22,23.3 
			22.1,23.3 22.2,23.3 22.3,23.3 22.3,23.3 22.3,23.3 22.4,23.3 22.5,23.3 22.6,23.3 22.7,23.3 22.8,23.3 22.9,23.3 22.9,23.3 
			23,23.3 23,23.3 23,23.3 23,23.2 23,23.1 23,23 23,23 23,22.9 23,22.8 22.9,22.7 22.8,22.6 22.7,22.6 22.6,22.5 22.5,22.5 
			22.4,22.5 22.4,22.5 22.3,22.5 22.1,22.5 22,22.5 21.8,22.5 21.7,22.5 21.5,22.5 21.4,22.5 21.2,22.5 21.1,22.6 20.9,22.6 
			20.8,22.6 20.7,22.6 20.6,22.7 20.5,22.7 20.4,22.7 20.4,22.8 20.7,21.6 20.7,21.6 20.8,21.6 20.9,21.5 21,21.5 21.2,21.5 
			21.3,21.4 21.4,21.4 21.5,21.4 21.7,21.4 21.8,21.4 21.9,21.4 22.1,21.4 22.2,21.4 22.4,21.4 22.5,21.4 22.7,21.4 22.9,21.4 
			22.9,21.4 23,21.4 23.1,21.4 23.3,21.4 23.4,21.5 23.6,21.5 23.7,21.6 23.9,21.7 24,21.8 24.1,21.9 24.2,22 24.3,22.1 24.4,22.3 
			24.5,22.4 24.5,22.6 24.5,22.8 24.5,23 24,25.5 		"/>
		<polygon class="st2" points="22.8,24.3 22.8,24.2 22.8,24.2 22.8,24.2 22.7,24.2 22.7,24.2 22.6,24.2 22.5,24.2 22.5,24.2 
			22.4,24.2 22.3,24.2 22.2,24.2 22.1,24.2 22.1,24.2 22,24.2 21.9,24.2 21.9,24.3 21.9,24.3 21.8,24.3 21.8,24.3 21.7,24.3 
			21.7,24.4 21.6,24.4 21.5,24.4 21.5,24.5 21.4,24.5 21.3,24.6 21.3,24.6 21.2,24.7 21.2,24.7 21.1,24.8 21.1,24.9 21.1,25 
			21.1,25.1 21.1,25.2 21.2,25.3 21.2,25.4 21.3,25.5 21.4,25.5 21.5,25.5 21.5,25.5 21.7,25.5 21.8,25.5 21.9,25.5 22,25.4 
			22.1,25.4 22.2,25.4 22.3,25.3 22.4,25.3 22.4,25.2 22.5,25.2 22.6,25.1 22.6,25.1 22.6,25 22.7,24.9 22.7,24.9 22.7,24.8 
			22.7,24.7 22.8,24.5 22.8,24.4 22.8,24.3 22.8,24.3 		"/>
		<polygon class="st3" points="13.9,26.6 12.6,26.6 13.7,20.3 15.9,20.3 16.1,24 17.7,20.3 20.1,20.3 19,26.6 17.7,26.6 18.5,21.9 
			18.4,21.9 16.5,26.6 15,26.6 15,26.4 15,25.9 14.9,25.1 14.9,24.3 14.8,23.4 14.8,22.6 14.7,22.1 14.7,21.9 14.7,21.9 14.7,21.9 
			14.7,21.9 14.7,21.9 13.9,26.6 13.9,26.6 		"/>
		<polyline class="st4" points="13.9,26.6 12.6,26.6 13.7,20.3 15.9,20.3 16.1,24 17.7,20.3 20.1,20.3 19,26.6 17.7,26.6 18.5,21.9 
			18.4,21.9 16.5,26.6 15,26.6 15,26.6 15,26.4 15,25.9 14.9,25.1 14.9,24.3 14.8,23.4 14.8,22.6 14.7,22.1 14.7,21.9 14.7,21.9 
			14.7,21.9 14.7,21.9 14.7,21.9 14.7,21.9 13.9,26.6 		"/>
		<polygon class="st3" points="47.8,25.5 47.6,26.6 46.4,26.6 46.4,26.4 46.4,26.2 46.4,26.1 46.4,26 46.4,26.1 46.3,26.2 
			46.2,26.2 46.1,26.3 46,26.4 45.9,26.4 45.8,26.5 45.7,26.5 45.5,26.6 45.4,26.6 45.3,26.6 45.1,26.6 45,26.7 44.9,26.7 
			44.7,26.6 44.6,26.6 44.4,26.6 44.3,26.5 44.1,26.5 44,26.4 43.9,26.3 43.8,26.2 43.7,26.1 43.7,26 43.6,25.9 43.6,25.8 
			43.5,25.7 43.5,25.6 43.5,25.5 43.5,25.4 43.5,25.3 43.5,25.2 43.5,25 43.5,24.8 43.5,24.7 43.6,24.5 43.7,24.3 43.8,24.2 
			43.9,24.1 44,24 44.1,23.8 44.2,23.7 44.4,23.7 44.5,23.6 44.7,23.5 44.8,23.5 45,23.4 45.2,23.4 45.2,23.4 45.2,23.4 45.2,23.4 
			45.3,23.4 45.3,23.4 45.4,23.4 45.5,23.3 45.5,23.3 45.6,23.3 45.7,23.3 45.8,23.3 45.9,23.3 46,23.3 46,23.3 46.1,23.3 
			46.1,23.3 46.3,23.3 46.4,23.3 46.5,23.3 46.6,23.3 46.7,23.3 46.8,23.3 46.8,23.3 46.8,23.3 46.8,23.3 46.8,23.2 46.9,23.1 
			46.9,23 46.9,22.9 46.8,22.8 46.7,22.7 46.7,22.6 46.6,22.6 46.5,22.5 46.4,22.5 46.3,22.5 46.1,22.5 46,22.5 45.8,22.5 
			45.7,22.5 45.5,22.5 45.4,22.5 45.2,22.5 45.1,22.5 44.9,22.6 44.8,22.6 44.7,22.6 44.5,22.6 44.4,22.7 44.4,22.7 44.3,22.7 
			44.2,22.8 44.6,21.6 44.7,21.6 44.8,21.5 44.9,21.5 45,21.5 45.1,21.4 45.3,21.4 45.4,21.4 45.5,21.4 45.6,21.4 45.8,21.4 
			45.9,21.4 46.1,21.4 46.2,21.4 46.4,21.4 46.5,21.4 46.7,21.4 46.8,21.4 47,21.4 47.1,21.4 47.3,21.5 47.4,21.5 47.6,21.6 
			47.7,21.7 47.9,21.8 48,21.9 48.1,22 48.2,22.1 48.3,22.3 48.3,22.4 48.3,22.6 48.3,22.8 48.3,23 47.8,25.5 47.8,25.5 		"/>
		<polygon class="st3" points="47.6,26.6 47.6,26.6 47.8,25.5 47.8,25.5 47.6,26.6 47.6,26.5 47.6,26.6 47.6,26.6 47.6,26.6 
			47.6,26.6 47.6,26.6 		"/>
		<polygon class="st3" points="46.4,26.6 46.4,26.6 47.6,26.6 47.6,26.5 46.4,26.5 46.4,26.6 46.4,26.6 46.4,26.6 46.4,26.6 
			46.4,26.6 46.4,26.6 		"/>
		<polygon class="st3" points="46.5,26 46.4,26 46.4,26.1 46.4,26.2 46.4,26.4 46.4,26.6 46.4,26.6 46.5,26.4 46.5,26.2 46.5,26.1 
			46.5,26 46.4,26 46.5,26 46.5,26 		"/>
		<polygon class="st3" points="44.6,26.7 44.6,26.7 44.7,26.7 44.9,26.7 45,26.7 45.1,26.7 45.3,26.7 45.4,26.6 45.5,26.6 
			45.7,26.6 45.8,26.5 45.9,26.4 46,26.4 46.1,26.3 46.2,26.3 46.3,26.2 46.4,26.1 46.5,26 46.4,26 46.4,26.1 46.3,26.1 46.2,26.2 
			46.1,26.3 46,26.3 45.9,26.4 45.8,26.4 45.7,26.5 45.5,26.5 45.4,26.6 45.3,26.6 45.1,26.6 45,26.6 44.9,26.6 44.7,26.6 
			44.6,26.6 44.6,26.6 44.6,26.7 44.6,26.7 		"/>
		<polygon class="st3" points="43.4,25.2 43.4,25.2 43.4,25.3 43.4,25.4 43.5,25.5 43.5,25.6 43.5,25.7 43.5,25.9 43.6,26 
			43.6,26.1 43.7,26.2 43.8,26.3 43.9,26.3 44,26.4 44.1,26.5 44.3,26.6 44.4,26.6 44.6,26.7 44.6,26.6 44.4,26.6 44.3,26.5 
			44.2,26.4 44,26.4 43.9,26.3 43.8,26.2 43.8,26.1 43.7,26 43.6,25.9 43.6,25.8 43.6,25.7 43.5,25.6 43.5,25.5 43.5,25.4 
			43.5,25.3 43.5,25.2 43.5,25.2 43.4,25.2 43.4,25.2 		"/>
		<polygon class="st3" points="45.2,23.4 45.2,23.4 45,23.4 44.8,23.4 44.7,23.5 44.5,23.5 44.4,23.6 44.2,23.7 44.1,23.8 44,23.9 
			43.8,24.1 43.7,24.2 43.7,24.3 43.6,24.5 43.5,24.7 43.5,24.8 43.4,25 43.4,25.2 43.5,25.2 43.5,25 43.5,24.8 43.6,24.7 
			43.6,24.5 43.7,24.4 43.8,24.2 43.9,24.1 44,24 44.1,23.9 44.3,23.8 44.4,23.7 44.5,23.6 44.7,23.5 44.8,23.5 45,23.4 45.2,23.4 
			45.2,23.4 45.2,23.4 45.2,23.4 		"/>
		<polygon class="st3" points="46.1,23.3 46.1,23.3 46.1,23.3 46,23.3 46,23.3 45.9,23.3 45.8,23.3 45.7,23.3 45.6,23.3 45.5,23.3 
			45.5,23.3 45.4,23.3 45.3,23.3 45.3,23.3 45.2,23.3 45.2,23.3 45.2,23.4 45.2,23.4 45.2,23.4 45.2,23.4 45.2,23.4 45.2,23.4 
			45.3,23.4 45.3,23.4 45.4,23.4 45.5,23.4 45.5,23.4 45.6,23.4 45.7,23.3 45.8,23.3 45.9,23.3 46,23.3 46,23.3 46.1,23.3 
			46.1,23.3 46.1,23.3 46.1,23.3 46.1,23.3 		"/>
		<polygon class="st3" points="46.8,23.3 46.8,23.3 46.8,23.3 46.8,23.3 46.7,23.3 46.6,23.3 46.5,23.3 46.4,23.3 46.3,23.3 
			46.1,23.3 46.1,23.3 46.3,23.3 46.4,23.3 46.5,23.3 46.6,23.3 46.7,23.3 46.8,23.3 46.8,23.3 46.8,23.3 46.9,23.3 46.8,23.3 
			46.8,23.3 46.9,23.3 46.8,23.3 46.8,23.3 		"/>
		<polygon class="st3" points="46.8,23 46.8,23 46.8,23.1 46.8,23.2 46.8,23.3 46.8,23.3 46.9,23.3 46.9,23.3 46.9,23.2 46.9,23.1 
			46.9,23 46.9,23 46.8,23 46.8,23 		"/>
		<polygon class="st3" points="46.3,22.5 46.3,22.5 46.4,22.5 46.5,22.6 46.6,22.6 46.7,22.7 46.7,22.7 46.8,22.8 46.8,22.9 
			46.8,23 46.9,23 46.9,22.9 46.8,22.8 46.8,22.7 46.7,22.6 46.6,22.5 46.5,22.5 46.4,22.5 46.3,22.5 46.3,22.5 46.3,22.5 
			46.3,22.5 		"/>
		<polygon class="st3" points="44.2,22.8 44.3,22.8 44.3,22.8 44.4,22.7 44.4,22.7 44.6,22.7 44.7,22.6 44.8,22.6 44.9,22.6 
			45.1,22.6 45.2,22.6 45.4,22.5 45.5,22.5 45.7,22.5 45.8,22.5 46,22.5 46.1,22.5 46.3,22.5 46.3,22.5 46.1,22.5 46,22.5 
			45.8,22.5 45.7,22.5 45.5,22.5 45.4,22.5 45.2,22.5 45.1,22.5 44.9,22.5 44.8,22.6 44.7,22.6 44.5,22.6 44.4,22.6 44.3,22.7 
			44.3,22.7 44.2,22.7 44.3,22.8 44.2,22.8 44.2,22.8 		"/>
		<polygon class="st3" points="44.6,21.6 44.5,21.6 44.2,22.8 44.3,22.8 44.6,21.6 44.6,21.6 44.6,21.6 44.5,21.6 44.5,21.6 
			44.6,21.6 44.6,21.6 		"/>
		<polygon class="st3" points="46.7,21.4 46.7,21.4 46.5,21.3 46.4,21.3 46.2,21.3 46.1,21.3 45.9,21.3 45.8,21.3 45.6,21.4 
			45.5,21.4 45.4,21.4 45.3,21.4 45.1,21.4 45,21.4 44.9,21.5 44.8,21.5 44.7,21.5 44.6,21.6 44.6,21.6 44.7,21.6 44.8,21.5 
			44.9,21.5 45,21.5 45.1,21.5 45.3,21.4 45.4,21.4 45.5,21.4 45.6,21.4 45.8,21.4 45.9,21.4 46.1,21.4 46.2,21.4 46.4,21.4 
			46.5,21.4 46.7,21.4 46.7,21.4 46.7,21.4 46.7,21.4 		"/>
		<polygon class="st3" points="48.3,23 48.3,23 48.4,22.8 48.4,22.6 48.3,22.4 48.3,22.3 48.2,22.1 48.1,22 48,21.9 47.9,21.8 
			47.7,21.7 47.6,21.6 47.4,21.5 47.3,21.5 47.1,21.4 47,21.4 46.8,21.4 46.7,21.4 46.7,21.4 46.8,21.4 47,21.4 47.1,21.5 
			47.3,21.5 47.4,21.6 47.6,21.6 47.7,21.7 47.8,21.8 48,21.9 48.1,22 48.2,22.2 48.2,22.3 48.3,22.4 48.3,22.6 48.3,22.8 48.3,23 
			48.3,23 48.3,23 48.3,23 		"/>
		<polygon class="st3" points="47.8,25.5 47.8,25.5 48.3,23 48.3,23 47.8,25.5 47.8,25.5 47.8,25.5 47.8,25.5 		"/>
		<polygon class="st1" points="46.7,24.3 46.6,24.2 46.6,24.2 46.6,24.2 46.5,24.2 46.5,24.2 46.4,24.2 46.4,24.2 46.3,24.2 
			46.2,24.2 46.1,24.2 46.1,24.2 46,24.2 45.9,24.2 45.8,24.2 45.8,24.2 45.7,24.3 45.7,24.3 45.7,24.3 45.6,24.3 45.6,24.3 
			45.5,24.3 45.4,24.4 45.4,24.4 45.3,24.4 45.3,24.5 45.2,24.5 45.1,24.6 45.1,24.7 45,24.7 45,24.8 45,24.9 45,25 45,25.1 
			45,25.2 45,25.3 45.1,25.4 45.1,25.5 45.2,25.5 45.3,25.5 45.4,25.5 45.5,25.5 45.7,25.5 45.8,25.5 45.9,25.4 46,25.4 46.1,25.4 
			46.2,25.3 46.3,25.2 46.3,25.2 46.4,25.1 46.4,25.1 46.5,25 46.5,25 46.5,24.9 46.6,24.8 46.6,24.8 46.6,24.7 46.6,24.5 
			46.6,24.4 46.7,24.3 46.7,24.3 		"/>
		<polygon class="st3" points="56.5,25.9 56.6,25.8 56.6,25.7 56.7,25.6 56.7,25.5 56.8,25.4 57,25.3 57.1,25.3 57.2,25.3 
			57.4,25.3 57.5,25.3 57.6,25.4 57.7,25.5 57.8,25.6 57.8,25.7 57.9,25.8 57.9,25.9 57.7,25.9 57.7,25.8 57.7,25.7 57.7,25.6 
			57.6,25.5 57.5,25.5 57.4,25.4 57.3,25.4 57.2,25.4 57.1,25.4 57,25.4 56.9,25.5 56.8,25.5 56.8,25.6 56.7,25.7 56.7,25.8 
			56.7,25.9 56.5,25.9 56.5,25.9 		"/>
		<polygon class="st3" points="57,25.9 57,25.6 57.2,25.6 57.3,25.6 57.4,25.6 57.4,25.7 57.4,25.7 57.5,25.7 57.5,25.7 57.5,25.8 
			57.5,25.8 57.5,25.8 57.5,25.9 57.5,25.9 57.4,25.9 57.2,25.9 57.3,25.9 57.3,25.9 57.3,25.9 57.4,25.9 57.4,25.9 57.4,25.9 
			57.4,25.8 57.4,25.8 57.4,25.8 57.4,25.8 57.4,25.8 57.3,25.7 57.3,25.7 57.3,25.7 57.3,25.7 57.2,25.7 57.1,25.7 57.1,25.9 
			57,25.9 57,25.9 		"/>
		<polygon class="st3" points="56.5,25.9 56.5,25.9 56.6,26.1 56.6,26.2 56.7,26.3 56.7,26.4 56.8,26.5 57,26.6 57.1,26.6 
			57.2,26.6 57.4,26.6 57.5,26.6 57.6,26.5 57.7,26.4 57.8,26.3 57.8,26.2 57.9,26.1 57.9,25.9 57.9,25.9 57.7,25.9 57.8,25.9 
			57.7,26.1 57.7,26.2 57.7,26.3 57.6,26.3 57.5,26.4 57.4,26.5 57.3,26.5 57.2,26.5 57.1,26.5 57,26.5 56.9,26.4 56.8,26.3 
			56.8,26.3 56.7,26.2 56.7,26.1 56.7,25.9 56.7,25.9 56.5,25.9 56.5,25.9 		"/>
		<polygon class="st3" points="57,25.9 57,26.2 57.1,26.2 57.1,26 57.2,26 57.4,26.2 57.5,26.2 57.3,26 57.4,26 57.4,26 57.4,26 
			57.4,25.9 57.4,25.9 57.2,25.9 57.2,25.9 57.1,25.9 57.1,25.9 57,25.9 57,25.9 		"/>
		<path class="st4" d="M56.5,25.9L56.5,25.9l0-0.1l0-0.1l0.1-0.1l0.1-0.1l0.1-0.1l0.1-0.1l0.1,0l0.1,0l0,0l0.1,0l0.1,0l0.1,0.1
			l0.1,0.1l0.1,0.1l0.1,0.1l0,0.1l0,0.1l0,0l0,0.1l0,0.1l-0.1,0.1l-0.1,0.1l-0.1,0.1l-0.1,0.1l-0.1,0l-0.1,0l0,0l-0.1,0l-0.1,0
			l-0.1-0.1l-0.1-0.1l-0.1-0.1l-0.1-0.1l0-0.1L56.5,25.9 M57.1,26.2H57v-0.6h0.3l0,0l0.1,0l0.1,0l0,0l0,0l0,0l0,0l0,0l0,0l0,0l0,0
			l0,0l0,0l0,0l0,0l0,0l0,0h0l0.1,0.2h-0.1L57.2,26h-0.1V26.2 M57.2,25.9L57.2,25.9L57.2,25.9L57.2,25.9l0.1,0l0,0l0,0l0,0l0,0v0
			l0,0l0,0l0,0l0,0l0,0l0,0l0,0h0h0h-0.1v0.2H57.2 M57.2,26.5L57.2,26.5l0.1,0l0.1,0l0.1-0.1l0.1-0.1l0.1-0.1l0-0.1l0-0.1l0-0.1l0,0
			l0-0.1l0-0.1l0-0.1l-0.1-0.1l-0.1-0.1l-0.1,0l-0.1,0l-0.1,0l0,0l-0.1,0l-0.1,0l-0.1,0l-0.1,0.1l-0.1,0.1l0,0.1l0,0.1l0,0.1l0,0
			l0,0.1l0,0.1l0,0.1l0.1,0.1l0.1,0.1l0.1,0.1l0.1,0L57.2,26.5"/>
		<polygon class="st3" points="48.2,26.6 49.5,26.6 49.5,26.6 50,23.8 50,23.7 50.1,23.6 50.1,23.5 50.1,23.4 50.2,23.3 50.2,23.2 
			50.3,23.1 50.4,23 50.5,22.9 50.6,22.9 50.7,22.8 50.8,22.7 50.9,22.7 51.1,22.7 51.3,22.6 51.4,22.6 51.5,22.6 51.5,22.6 
			51.6,22.6 51.6,22.6 51.8,21.4 51.6,21.4 51.5,21.4 51.4,21.4 51.3,21.5 51.2,21.5 51.1,21.5 51,21.6 50.9,21.7 50.8,21.7 
			50.7,21.8 50.6,21.9 50.6,21.9 50.5,22 50.4,22.1 50.3,22.2 50.3,22.3 50.4,21.4 49.1,21.4 48.2,26.6 48.2,26.6 48.2,26.6 		"/>
		<polyline class="st4" points="48.2,26.6 49.5,26.6 49.5,26.6 50,23.8 50,23.8 50,23.7 50.1,23.6 50.1,23.5 50.1,23.4 50.2,23.3 
			50.2,23.2 50.3,23.1 50.4,23 50.5,22.9 50.6,22.9 50.7,22.8 50.8,22.7 50.9,22.7 51.1,22.7 51.3,22.6 51.4,22.6 51.4,22.6 
			51.5,22.6 51.5,22.6 51.6,22.6 51.6,22.6 51.8,21.4 51.8,21.4 51.6,21.4 51.5,21.4 51.4,21.4 51.3,21.5 51.2,21.5 51.1,21.5 
			51,21.6 50.9,21.7 50.8,21.7 50.7,21.8 50.6,21.9 50.6,21.9 50.5,22 50.4,22.1 50.3,22.2 50.3,22.3 50.4,21.4 49.1,21.4 
			48.2,26.6 48.2,26.6 		"/>
		<polygon class="st3" points="35.5,26.6 36.8,26.6 36.8,26.6 37.3,23.8 37.3,23.7 37.3,23.6 37.4,23.5 37.4,23.4 37.4,23.3 
			37.5,23.3 37.5,23.2 37.6,23.1 37.7,23 37.8,22.9 37.9,22.9 38,22.8 38.1,22.8 38.3,22.7 38.4,22.7 38.6,22.7 38.6,22.7 
			38.7,22.7 38.7,22.7 38.7,22.7 38.7,22.7 38.8,22.7 38.8,22.7 38.8,22.7 38.8,22.7 38.8,22.7 38.8,22.6 38.8,22.5 38.9,22.3 
			38.9,22.2 38.9,22.1 39,21.9 39,21.8 39.1,21.8 39.1,21.7 39.2,21.6 39.2,21.5 39.2,21.5 39.3,21.4 39.3,21.4 39.3,21.4 
			39.3,21.4 39.2,21.4 39.2,21.4 39.2,21.4 39.1,21.4 39.1,21.4 39.1,21.4 38.9,21.4 38.8,21.4 38.7,21.4 38.5,21.5 38.4,21.5 
			38.3,21.5 38.2,21.6 38.1,21.6 38.1,21.7 38,21.8 37.9,21.9 37.8,21.9 37.8,22 37.7,22.1 37.6,22.2 37.6,22.3 37.7,21.4 
			36.4,21.4 35.5,26.6 35.5,26.6 35.5,26.6 		"/>
		<polyline class="st4" points="35.5,26.6 36.8,26.6 36.8,26.6 37.3,23.8 37.3,23.8 37.3,23.7 37.3,23.6 37.4,23.5 37.4,23.4 
			37.4,23.3 37.5,23.3 37.5,23.2 37.6,23.1 37.7,23 37.8,22.9 37.9,22.9 38,22.8 38.1,22.8 38.3,22.7 38.4,22.7 38.6,22.7 
			38.6,22.7 38.6,22.7 38.7,22.7 38.7,22.7 38.7,22.7 38.7,22.7 38.8,22.7 38.8,22.7 38.8,22.7 38.8,22.7 38.8,22.7 38.8,22.7 
			38.8,22.6 38.8,22.5 38.9,22.3 38.9,22.2 38.9,22.1 39,21.9 39,21.9 39,21.8 39.1,21.8 39.1,21.7 39.2,21.6 39.2,21.5 39.2,21.5 
			39.3,21.4 39.3,21.4 39.3,21.4 39.3,21.4 39.3,21.4 39.2,21.4 39.2,21.4 39.2,21.4 39.1,21.4 39.1,21.4 39.1,21.4 39.1,21.4 
			38.9,21.4 38.8,21.4 38.7,21.4 38.5,21.5 38.4,21.5 38.3,21.5 38.2,21.6 38.1,21.6 38.1,21.7 38,21.8 37.9,21.9 37.8,21.9 
			37.8,22 37.7,22.1 37.6,22.2 37.6,22.3 37.7,21.4 36.4,21.4 35.5,26.6 35.5,26.6 		"/>
		<polygon class="st1" points="56.5,31.7 56.6,31.6 56.7,31.6 56.7,31.6 56.7,31.7 56.5,31.7 56.5,31.7 		"/>
	</g>
</g>
</svg>
