<svg xmlns="http://www.w3.org/2000/svg" xmlns:xlink="http://www.w3.org/1999/xlink" version="1.1" id="Layer_1" x="0px" y="0px" viewBox="0 0 77 63" style="enable-background:new 0 0 77 63;" xml:space="preserve"><style type="text/css">
	.st0{fill:#FFFFFF;}
</style><g><g><path class="st0" d="M37.5,34.3c-0.1,0-0.2,0-0.4-0.1L0.9,23.1C0.3,22.9,0,22.5,0,21.9v-4.6c0-0.5,0.3-1,0.8-1.2L38.1,4.1    c0.2-0.1,0.5-0.1,0.8,0L74.1,16c0.5,0.2,0.8,0.6,0.8,1.1v4.8c0,0.5-0.4,1-0.9,1.2l-3.5,1c-0.6,0.2-1.3-0.2-1.5-0.8    c-0.2-0.6,0.2-1.3,0.8-1.5l2.6-0.8v-3L38.4,6.5l-36,11.8V21l35.1,10.8l25.9-7.5c0.6-0.2,1.3,0.2,1.5,0.8c0.2,0.6-0.2,1.3-0.8,1.5    l-26.2,7.6C37.7,34.3,37.6,34.3,37.5,34.3z"></path></g><g><path class="st0" d="M70.4,37.6c-0.7,0-1.2-0.5-1.2-1.2v-8.6L37.8,18c-0.6-0.2-1-0.9-0.8-1.5c0.2-0.6,0.9-1,1.5-0.8l32.2,10    c0.5,0.2,0.9,0.6,0.9,1.2v9.5C71.6,37.1,71.1,37.6,70.4,37.6z"></path></g><g><path class="st0" d="M70.6,44.8c-2.6,0-4.7-2.1-4.7-4.7c0-2.6,2.1-4.7,4.7-4.7s4.7,2.1,4.7,4.7C75.3,42.7,73.2,44.8,70.6,44.8z     M70.6,37.8c-1.2,0-2.3,1-2.3,2.3c0,1.2,1,2.3,2.3,2.3c1.2,0,2.3-1,2.3-2.3C72.8,38.9,71.8,37.8,70.6,37.8z"></path></g><g><path class="st0" d="M75.8,59c-0.6,0-1.1-0.4-1.2-1l-2.7-13.6c-0.1-0.7,0.3-1.3,1-1.4c0.7-0.1,1.3,0.3,1.4,1L77,57.6    c0.1,0.7-0.3,1.3-1,1.4C75.9,59,75.9,59,75.8,59z"></path></g><g><path class="st0" d="M71.4,59h-6c-0.4,0-0.7-0.2-0.9-0.4c-0.2-0.3-0.3-0.7-0.2-1L67,43.9c0.1-0.7,0.8-1.1,1.4-0.9    c0.7,0.1,1.1,0.8,0.9,1.4l-2.5,12.1h4.5c0.7,0,1.2,0.5,1.2,1.2S72.1,59,71.4,59z"></path></g><g><path class="st0" d="M37.2,55.8c-12.4,0-21.8-4.2-21.8-9.7V27.2c0-0.7,0.5-1.2,1.2-1.2c0.7,0,1.2,0.5,1.2,1.2v18.9    c0,3.4,8,7.2,19.4,7.2c11.3,0,19.8-3.9,19.8-7.5V27c0-0.7,0.5-1.2,1.2-1.2c0.7,0,1.2,0.5,1.2,1.2v18.9    C59.4,51.4,49.4,55.8,37.2,55.8z"></path></g><g><path class="st0" d="M37.2,49.9c-2.1,0-4.3-0.1-6.3-0.4c-0.7-0.1-1.1-0.7-1.1-1.4c0.1-0.7,0.7-1.1,1.4-1c1.9,0.2,3.9,0.4,6,0.4    c6,0,11.6-1.1,15.6-2.9c0.6-0.3,1.3,0,1.6,0.6c0.3,0.6,0,1.3-0.6,1.6C49.5,48.7,43.5,49.9,37.2,49.9z"></path></g><g><path class="st0" d="M26.8,48.7c-0.1,0-0.2,0-0.3,0c-2-0.5-3.7-1.1-5.2-1.8c-0.6-0.3-0.9-1-0.6-1.6c0.3-0.6,1-0.9,1.6-0.6    c1.4,0.6,3,1.2,4.8,1.6c0.7,0.2,1.1,0.8,0.9,1.5C27.8,48.3,27.3,48.7,26.8,48.7z"></path></g></g></svg>