<svg xmlns="http://www.w3.org/2000/svg" xmlns:xlink="http://www.w3.org/1999/xlink" version="1.1" id="Layer_1" x="0px" y="0px" viewBox="0 0 77 63" style="enable-background:new 0 0 77 63;" xml:space="preserve"><style type="text/css">
	.st0{fill:#FFFFFF;}
</style><g><g><path class="st0" d="M19.2,34.4c-0.7,0-1.2-0.5-1.2-1.2c0-3.5,0.9-7,2.6-10c0.3-0.6,1.1-0.8,1.6-0.5c0.6,0.3,0.8,1.1,0.5,1.6    c-1.5,2.7-2.3,5.8-2.3,8.9C20.4,33.9,19.9,34.4,19.2,34.4z"></path></g><g><path class="st0" d="M38.5,53.7c-2.5,0-5-0.5-7.3-1.3c-0.6-0.2-0.9-0.9-0.7-1.5c0.2-0.6,0.9-0.9,1.5-0.7c2.1,0.8,4.2,1.2,6.5,1.2    c10,0,18.1-8.1,18.1-18.1s-8.1-18.1-18.1-18.1c-4.1,0-7.9,1.3-11.1,3.8c-0.5,0.4-1.3,0.3-1.7-0.2c-0.4-0.5-0.3-1.3,0.2-1.7    c3.6-2.8,8-4.3,12.5-4.3c11.3,0,20.5,9.2,20.5,20.5S49.8,53.7,38.5,53.7z"></path></g><g><path class="st0" d="M38.5,60.2c-3.6,0-7.2-0.7-10.5-2.1c-0.6-0.3-0.9-1-0.6-1.6c0.3-0.6,1-0.9,1.6-0.6c3,1.3,6.3,1.9,9.6,1.9    c13.6,0,24.6-11,24.6-24.6S52.1,8.6,38.5,8.6s-24.6,11-24.6,24.6c0,3.8,0.8,7.4,2.5,10.8c0.3,0.6,0,1.3-0.5,1.6    c-0.6,0.3-1.3,0-1.6-0.6c-1.8-3.7-2.7-7.7-2.7-11.9c0-14.9,12.1-27,27-27s27,12.1,27,27C65.5,48.1,53.4,60.2,38.5,60.2z"></path></g><g><path class="st0" d="M47.3,35.8h-9.6c-0.7,0-1.2-0.5-1.2-1.2V23c0-0.7,0.5-1.2,1.2-1.2s1.2,0.5,1.2,1.2v10.4h8.4    c0.7,0,1.2,0.5,1.2,1.2S47.9,35.8,47.3,35.8z"></path></g><g><path class="st0" d="M25.3,62.2c-0.1,0-0.1,0-0.2,0c-0.5-0.1-0.9-0.5-1-0.9l-2.6-12.1c-0.1-0.3,0-0.6,0.2-0.9    c0.2-0.3,0.5-0.5,0.8-0.5l11.8-2.3c0.5-0.1,1,0.1,1.2,0.5c0.3,0.4,0.3,0.9,0,1.3l-2.9,4.5c-0.4,0.6-1.1,0.7-1.7,0.4    c-0.6-0.4-0.7-1.1-0.4-1.7l1.4-2.2l-7.8,1.5l1.7,8l1.4-2.2c0.4-0.6,1.1-0.7,1.7-0.4c0.6,0.4,0.7,1.1,0.4,1.7l-3,4.7    C26.1,62,25.8,62.2,25.3,62.2z"></path></g><g><path class="st0" d="M43.2,3.2h-8.6c-0.7,0-1.2-0.5-1.2-1.2s0.5-1.2,1.2-1.2h8.6c0.7,0,1.2,0.5,1.2,1.2S43.8,3.2,43.2,3.2z"></path></g></g></svg>