<svg xmlns="http://www.w3.org/2000/svg" xmlns:xlink="http://www.w3.org/1999/xlink" version="1.1" id="Layer_1" x="0px" y="0px" viewBox="0 0 77 63" style="enable-background:new 0 0 77 63;" xml:space="preserve"><style type="text/css">
	.st0{fill:#FFFFFF;}
</style><g><g><path class="st0" d="M26.3,55.1c-0.3,0-0.6-0.1-0.9-0.4C16.5,45.8,12,36.2,12,26.2V14.3c0-0.7,0.5-1.2,1.2-1.2s1.2,0.5,1.2,1.2    v11.9c0,9.3,4.3,18.3,12.7,26.8c0.5,0.5,0.5,1.2,0,1.7C26.9,55,26.6,55.1,26.3,55.1z"></path></g><g><path class="st0" d="M35.9,63c-0.2,0-0.5-0.1-0.7-0.2c-1.4-0.9-2.7-1.9-4.1-3c-0.5-0.4-0.6-1.2-0.2-1.7c0.4-0.5,1.2-0.6,1.7-0.2    c1.3,1,2.6,2,3.9,2.9c0.6,0.4,0.7,1.1,0.3,1.7C36.7,62.8,36.3,63,35.9,63z"></path></g><g id="XMLID_684_"><path class="st0" d="M41.8,59.4c-0.2,0-0.4,0-0.6-0.1c-0.2-0.1-5.8-3.1-11.5-8.7c-7.6-7.4-11.6-15.9-11.6-24.4V12.5    c0-0.7,0.5-1.2,1.2-1.2C30,11.3,40.6,0.5,40.7,0.4C40.9,0.1,41.2,0,41.6,0c0.3,0,0.7,0.2,0.9,0.4c0.1,0.1,5.6,6.4,14.6,8.7    c0.7,0.2,1.4,0.3,2.1,0.4c1.5,0.3,3.1,0.4,4.7,0.4c0.7,0,1.2,0.5,1.2,1.2v15.1c0,8.4-3.9,16.8-11.4,24.2    c-5.6,5.6-11.1,8.7-11.3,8.8C42.2,59.4,42,59.4,41.8,59.4z M20.5,13.6v12.6c0,17.3,17.8,28.6,21.2,30.6    c3.4-2.1,20.9-13.6,20.9-30.6V12.3c-1.3-0.1-2.6-0.2-3.9-0.4c-0.8-0.1-1.5-0.3-2.3-0.5c-7.7-1.9-12.9-6.5-14.9-8.5    C38.8,5.5,30,13,20.5,13.6z"></path></g><g id="XMLID_683_"><path class="st0" d="M41.8,43c-7.8,0-14.1-6.4-14.1-14.3S34,14.5,41.8,14.5s14.1,6.4,14.1,14.3S49.6,43,41.8,43z M41.8,16.9    c-6.5,0-11.7,5.3-11.7,11.9s5.3,11.9,11.7,11.9s11.7-5.3,11.7-11.9S48.2,16.9,41.8,16.9z"></path></g><g id="XMLID_682_"><path class="st0" d="M41.8,35.9c-3.9,0-7.1-3.2-7.1-7.2s3.2-7.2,7.1-7.2c1.8,0,3.5,0.7,4.8,1.9c0.5,0.5,0.5,1.2,0.1,1.7    c-0.5,0.5-1.2,0.5-1.7,0.1c-0.9-0.8-2-1.3-3.2-1.3c-2.6,0-4.7,2.1-4.7,4.8s2.1,4.8,4.7,4.8c1.1,0,2.1-0.4,2.9-1    c0.5-0.4,1.3-0.3,1.7,0.2c0.4,0.5,0.3,1.3-0.2,1.7C45,35.3,43.4,35.9,41.8,35.9z"></path></g></g></svg>