<svg xmlns="http://www.w3.org/2000/svg" xmlns:xlink="http://www.w3.org/1999/xlink" version="1.1" id="Layer_1" x="0px" y="0px" viewBox="0 0 77 63" style="enable-background:new 0 0 77 63;" xml:space="preserve"><style type="text/css">
	.st0{fill:#FFFFFF;}
</style><g><g><path class="st0" d="M30.2,31.5c-0.3,0-0.6-0.1-0.8-0.3c-0.5-0.4-0.5-1.2-0.1-1.7c0,0,1.5-1.7,4.5-6.9c2.7-4.7,3.1-6.8,3.2-7.1    V7.2c0-0.3,0.1-0.5,0.2-0.7c0.1-0.1,1.9-2.5,5-2.5c3.1,0,4.9,2.7,5,2.9c0.1,0.1,3.6,4.9,2.9,13.6c-0.1,1.8-0.6,3.3-1,4.4h16.3    c0.7,0,1.2,0.5,1.2,1.2s-0.5,1.2-1.2,1.2H47.2c-0.4,0-0.8-0.2-1-0.6c-0.2-0.4-0.2-0.8,0-1.2c0,0,1.2-2.1,1.5-5.2    c0.6-7.8-2.4-12-2.4-12c-0.1-0.1-1.2-1.8-3-1.8c-1.4,0-2.4,0.8-2.8,1.2v8c0,0.3-0.3,2.7-3.5,8.2c-3.2,5.5-4.8,7.2-4.8,7.3    C30.8,31.4,30.5,31.5,30.2,31.5z"></path></g><g><path class="st0" d="M65.2,36.3h-6.3c-0.7,0-1.2-0.5-1.2-1.2s0.5-1.2,1.2-1.2h6.3c1.9,0,3.4-1.4,3.4-3.3c0-1.8-1.5-3.4-3.4-3.4    h-3.8c-0.7,0-1.2-0.5-1.2-1.2s0.5-1.2,1.2-1.2h3.8c3.2,0,5.8,2.6,5.8,5.8C71,33.7,68.4,36.3,65.2,36.3z"></path></g><g><path class="st0" d="M62.5,43.2h-3.6c-0.7,0-1.2-0.5-1.2-1.2s0.5-1.2,1.2-1.2h3.6c1.6,0,2.9-1,3.3-2.5c0.2-0.6,0.8-1,1.5-0.9    c0.6,0.2,1,0.8,0.9,1.5C67.5,41.4,65.2,43.2,62.5,43.2z"></path></g><g><path class="st0" d="M60.9,50.2h-2.1c-0.7,0-1.2-0.5-1.2-1.2s0.5-1.2,1.2-1.2h2.1c1.6,0,2.9-1,3.3-2.5c0.2-0.6,0.8-1,1.5-0.9    c0.6,0.2,1,0.8,0.9,1.5C65.9,48.4,63.6,50.2,60.9,50.2z"></path></g><g><path class="st0" d="M57.9,58.1h-27c-0.7,0-1.2-0.5-1.2-1.2s0.5-1.2,1.2-1.2h27c1.6,0,2.9-1,3.3-2.5c0.2-0.6,0.8-1,1.5-0.9    c0.6,0.2,1,0.8,0.9,1.5C62.9,56.3,60.6,58.1,57.9,58.1z"></path></g><g><path class="st0" d="M26.2,59H8.8c-0.6,0-1.2-0.5-1.2-1.1L6,30.1c0-0.3,0.1-0.7,0.3-0.9s0.5-0.4,0.9-0.4h19c0.7,0,1.2,0.5,1.2,1.2    v27.8C27.4,58.5,26.9,59,26.2,59z M10,56.6H25V31.2H8.5L10,56.6z"></path></g><g><path class="st0" d="M21.3,54c-0.7,0-1.2-0.5-1.2-1.2V36.2h-8.4c-0.7,0-1.2-0.5-1.2-1.2s0.5-1.2,1.2-1.2h9.6    c0.7,0,1.2,0.5,1.2,1.2v17.8C22.5,53.4,22,54,21.3,54z"></path></g></g></svg>