<?xml version="1.0" encoding="utf-8"?>
<!-- Generator: Adobe Illustrator 22.0.0, SVG Export Plug-In . SVG Version: 6.00 Build 0)  -->
<svg version="1.1" id="Layer_1" xmlns="http://www.w3.org/2000/svg" xmlns:xlink="http://www.w3.org/1999/xlink" x="0px" y="0px"
	 viewBox="0 0 59 61" style="enable-background:new 0 0 59 61;" xml:space="preserve">
<style type="text/css">
	.st0{fill:#71C2A0;}
</style>
<g>
	<g>
		<path class="st0" d="M29.3,50.6c-0.8,0-1.6-0.3-2.1-0.9l-1.4-1.4c-0.6-0.6-1.9-1.1-2.7-1.1h-2c-1.7,0-3-1.3-3-3v-2
			c0-0.8-0.5-2.1-1.1-2.7L15.4,38c-1.2-1.2-1.2-3.1,0-4.2l1.4-1.4c0.6-0.6,1.1-1.9,1.1-2.7v-2.1c0-1.7,1.3-3,3-3h2
			c0.8,0,2.1-0.5,2.7-1.1l1.4-1.4c0.6-0.6,1.3-0.9,2.1-0.9c0,0,0,0,0,0c0.8,0,1.6,0.3,2.1,0.9l1.4,1.4c0.6,0.6,1.9,1.1,2.7,1.1h2
			c1.7,0,3,1.3,3,3v2.1c0,0.8,0.5,2.1,1.1,2.7l1.4,1.4c1.2,1.2,1.2,3.1,0,4.2l-1.4,1.4c-0.6,0.6-1.1,1.9-1.1,2.7v2c0,1.7-1.3,3-3,3
			h-2c-0.8,0-2.1,0.5-2.7,1.1l-1.4,1.4C30.8,50.3,30.1,50.6,29.3,50.6C29.3,50.6,29.3,50.6,29.3,50.6z M21,26.5c-0.6,0-1,0.4-1,1
			v2.1c0,1.4-0.7,3.2-1.7,4.1l-1.4,1.4c-0.4,0.4-0.4,1,0,1.4l1.4,1.4c1,1,1.7,2.7,1.7,4.1v2c0,0.6,0.4,1,1,1h2
			c1.4,0,3.1,0.7,4.1,1.7l1.4,1.4c0.4,0.4,1,0.4,1.4,0l1.4-1.4c1-1,2.7-1.7,4.1-1.7h2c0.6,0,1-0.4,1-1v-2c0-1.4,0.7-3.1,1.7-4.1
			l1.4-1.4c0.4-0.4,0.4-1,0-1.4l-1.4-1.4c-1-1-1.7-2.8-1.7-4.1v-2.1c0-0.6-0.4-1-1-1h-2c-1.4,0-3.1-0.7-4.1-1.7L30,23.4
			c-0.2-0.2-0.4-0.3-0.7-0.3h0c-0.3,0-0.5,0.1-0.7,0.3l-1.4,1.4c-1,1-2.7,1.7-4.1,1.7H21z"/>
	</g>
	<g>
		<path class="st0" d="M22.5,61c-0.2,0-0.3,0-0.4-0.1c-0.3-0.2-0.6-0.5-0.6-0.9V46.2c0-0.6,0.4-1,1-1s1,0.4,1,1V58l5.4-4.1
			c0.4-0.3,0.9-0.3,1.2,0l5.4,4.1V46.2c0-0.6,0.4-1,1-1s1,0.4,1,1V60c0,0.4-0.2,0.7-0.6,0.9c-0.3,0.2-0.7,0.1-1.1-0.1l-6.4-4.9
			l-6.4,4.9C22.9,60.9,22.7,61,22.5,61z"/>
	</g>
	<g>
		<path class="st0" d="M29.2,42.3c-0.6,0-1-0.4-1-1s0.4-1,1-1c2.4,0,4.4-2,4.4-4.5c0-2.5-2-4.5-4.4-4.5s-4.4,2-4.4,4.5
			c0,0.6,0.1,1.2,0.3,1.7c0.2,0.5,0,1.1-0.5,1.3c-0.5,0.2-1.1,0-1.3-0.5c-0.3-0.8-0.5-1.6-0.5-2.5c0-3.6,2.9-6.5,6.4-6.5
			c3.6,0,6.4,2.9,6.4,6.5S32.8,42.3,29.2,42.3z"/>
	</g>
	<g>
		<path class="st0" d="M55.5,43.2H39.7c-0.6,0-1-0.4-1-1s0.4-1,1-1h14.8V2h-50v39.2h13.7c0.6,0,1,0.4,1,1s-0.4,1-1,1H3.5
			c-0.6,0-1-0.4-1-1V1c0-0.6,0.4-1,1-1h52c0.6,0,1,0.4,1,1v41.2C56.5,42.7,56.1,43.2,55.5,43.2z"/>
	</g>
	<g>
		<path class="st0" d="M50.5,38.1H43c-0.6,0-1-0.4-1-1s0.4-1,1-1h6.5V8h-40v28.1h5.9c0.6,0,1,0.4,1,1s-0.4,1-1,1H8.5
			c-0.6,0-1-0.4-1-1V7c0-0.6,0.4-1,1-1h42c0.6,0,1,0.4,1,1v30.1C51.5,37.7,51.1,38.1,50.5,38.1z"/>
	</g>
	<g>
		<path class="st0" d="M35.7,14h-12c-0.6,0-1-0.4-1-1s0.4-1,1-1h12c0.6,0,1,0.4,1,1S36.3,14,35.7,14z"/>
	</g>
	<g>
		<path class="st0" d="M39.8,19.1H19.1c-0.6,0-1-0.4-1-1s0.4-1,1-1h20.8c0.6,0,1,0.4,1,1S40.4,19.1,39.8,19.1z"/>
	</g>
</g>
</svg>
