<?xml version="1.0" encoding="utf-8"?>
<!-- Generator: Adobe Illustrator 22.0.0, SVG Export Plug-In . SVG Version: 6.00 Build 0)  -->
<svg version="1.1" id="Layer_1" xmlns="http://www.w3.org/2000/svg" xmlns:xlink="http://www.w3.org/1999/xlink" x="0px" y="0px"
	 viewBox="0 0 59 61" style="enable-background:new 0 0 59 61;" xml:space="preserve">
<style type="text/css">
	.st0{fill:#71C2A0;}
</style>
<g>
	<g id="XMLID_800_">
		<g id="XMLID_805_">
			<path class="st0" d="M57,61H45c-0.6,0-1-0.4-1-1V37c0-0.6,0.4-1,1-1h12c0.6,0,1,0.4,1,1v23C58,60.5,57.5,61,57,61z M46,59h10V38
				H46V59z"/>
		</g>
		<g id="XMLID_804_">
			<path class="st0" d="M27.3,44.8h-6.4c-2,0-3.7-1.7-3.7-3.7c0-2,1.7-3.7,3.7-3.7h6.4c2.4,0,3-1,3.1-1.3l-1-6.2c0-0.1,0-0.1,0-0.2
				c0-2,1.7-3.7,3.7-3.7c2,0,3.6,1.5,3.7,3.5l3.1,7.4l1.9,2.2H45c0.6,0,1,0.4,1,1s-0.4,1-1,1h-3.7c-0.3,0-0.6-0.1-0.8-0.3L38.3,38
				c-0.1-0.1-0.1-0.2-0.2-0.3l-3.2-7.7c-0.1-0.1-0.1-0.3-0.1-0.4c0-0.9-0.8-1.7-1.7-1.7c-0.9,0-1.7,0.7-1.7,1.6l1,6.3
				c0,0.1,0,0.2,0,0.3c0,0.1-0.4,3.2-5.1,3.2h-6.4c-0.9,0-1.7,0.8-1.7,1.7c0,0.9,0.8,1.7,1.7,1.7h6.4c0.6,0,1,0.4,1,1
				S27.8,44.8,27.3,44.8z"/>
		</g>
		<g id="XMLID_803_">
			<path class="st0" d="M27.3,50.2h-6.4c-2,0-3.7-1.7-3.7-3.7c0-2,1.7-3.7,3.7-3.7h6.4c0.6,0,1,0.4,1,1s-0.4,1-1,1h-6.4
				c-0.9,0-1.7,0.8-1.7,1.7c0,0.9,0.8,1.7,1.7,1.7h6.4c0.6,0,1,0.4,1,1S27.8,50.2,27.3,50.2z"/>
		</g>
		<g id="XMLID_802_">
			<path class="st0" d="M27.3,55.6h-6.4c-2,0-3.7-1.7-3.7-3.7s1.7-3.7,3.7-3.7h6.4c0.6,0,1,0.4,1,1s-0.4,1-1,1h-6.4
				c-0.9,0-1.7,0.8-1.7,1.7s0.8,1.7,1.7,1.7h6.4c0.6,0,1,0.4,1,1S27.8,55.6,27.3,55.6z"/>
		</g>
		<g id="XMLID_801_">
			<path class="st0" d="M36.1,61H20.9c-2,0-3.7-1.7-3.7-3.7c0-2,1.7-3.7,3.7-3.7h6.4c0.6,0,1,0.4,1,1s-0.4,1-1,1h-6.4
				c-0.9,0-1.7,0.8-1.7,1.7c0,0.9,0.8,1.7,1.7,1.7h14.9l3.1-2.5c0.2-0.1,0.4-0.2,0.6-0.2H45c0.6,0,1,0.4,1,1s-0.4,1-1,1h-5.1
				l-3.1,2.5C36.6,60.9,36.3,61,36.1,61z"/>
		</g>
	</g>
	<g id="XMLID_799_">
		<path class="st0" d="M51.6,47.5c-0.6,0-1-0.4-1-1v-4c0-0.6,0.4-1,1-1s1,0.4,1,1v4C52.6,47,52.2,47.5,51.6,47.5z"/>
	</g>
	<g id="XMLID_798_">
		<path class="st0" d="M34.3,2H2C1.5,2,1,1.6,1,1s0.4-1,1-1h32.3c0.6,0,1,0.4,1,1S34.8,2,34.3,2z"/>
	</g>
	<g id="XMLID_797_">
		<path class="st0" d="M45,34.9c-0.6,0-1-0.4-1-1V5.3C44,3.5,42.5,2,40.6,2H29.2c-0.6,0-1-0.4-1-1s0.4-1,1-1h11.5
			C43.6,0,46,2.4,46,5.3v28.6C46,34.5,45.5,34.9,45,34.9z"/>
	</g>
	<g id="XMLID_796_">
		<path class="st0" d="M2,61c-0.6,0-1-0.4-1-1V1c0-0.6,0.4-1,1-1s1,0.4,1,1v59C3,60.6,2.6,61,2,61z"/>
	</g>
	<g id="XMLID_795_">
		<path class="st0" d="M12.8,61H2c-0.6,0-1-0.4-1-1s0.4-1,1-1h10.8c0.6,0,1,0.4,1,1S13.4,61,12.8,61z"/>
	</g>
	<g id="XMLID_794_">
		<path class="st0" d="M37,12H11.4c-0.6,0-1-0.4-1-1s0.4-1,1-1H37c0.6,0,1,0.4,1,1S37.6,12,37,12z"/>
	</g>
	<g id="XMLID_793_">
		<path class="st0" d="M26.7,21H11.4c-0.6,0-1-0.4-1-1s0.4-1,1-1h15.3c0.6,0,1,0.4,1,1S27.3,21,26.7,21z"/>
	</g>
	<g id="XMLID_792_">
		<path class="st0" d="M23.8,30H11.4c-0.6,0-1-0.4-1-1s0.4-1,1-1h12.4c0.6,0,1,0.4,1,1S24.4,30,23.8,30z"/>
	</g>
</g>
</svg>
