<?xml version="1.0" encoding="utf-8"?>
<!-- Generator: Adobe Illustrator 22.0.0, SVG Export Plug-In . SVG Version: 6.00 Build 0)  -->
<svg version="1.1" id="Layer_1" xmlns="http://www.w3.org/2000/svg" xmlns:xlink="http://www.w3.org/1999/xlink" x="0px" y="0px"
	 viewBox="0 0 59 61" style="enable-background:new 0 0 59 61;" xml:space="preserve">
<style type="text/css">
	.st0{fill:#71C2A0;}
</style>
<g>
	<g id="XMLID_791_">
		<path class="st0" d="M44.9,2H8.2c-0.6,0-1-0.4-1-1s0.4-1,1-1h36.7c0.6,0,1,0.4,1,1S45.4,2,44.9,2z"/>
	</g>
	<g id="XMLID_790_">
		<path class="st0" d="M55.5,60.9c-0.6,0-1-0.4-1-1V5.3C54.5,3.5,53,2,51.2,2H39.8c-0.6,0-1-0.4-1-1s0.4-1,1-1h11.4
			c2.9,0,5.3,2.4,5.3,5.3v54.6C56.5,60.4,56.1,60.9,55.5,60.9z"/>
	</g>
	<g id="XMLID_789_">
		<path class="st0" d="M12.8,61c-0.6,0-1-0.4-1-1V5.7c0-0.6,0.4-1,1-1s1,0.4,1,1V60C13.8,60.6,13.4,61,12.8,61z"/>
	</g>
	<g id="XMLID_788_">
		<path class="st0" d="M12.8,11H3.5c-0.6,0-1-0.4-1-1V5.7C2.5,2.5,5,0,8.2,0c3.1,0,5.7,2.5,5.7,5.7c0,0.6-0.4,1-1,1s-1-0.4-1-1
			c0-2-1.6-3.7-3.7-3.7c-2,0-3.7,1.7-3.7,3.7V9h8.3c0.6,0,1,0.4,1,1S13.4,11,12.8,11z"/>
	</g>
	<g id="XMLID_787_">
		<path class="st0" d="M38.1,12H21.8c-0.6,0-1-0.4-1-1s0.4-1,1-1h16.3c0.6,0,1,0.4,1,1S38.7,12,38.1,12z"/>
	</g>
	<g id="XMLID_786_">
		<path class="st0" d="M48.5,12h-4.2c-0.6,0-1-0.4-1-1s0.4-1,1-1h4.2c0.6,0,1,0.4,1,1S49,12,48.5,12z"/>
	</g>
	<g id="XMLID_785_">
		<path class="st0" d="M38.1,19H21.8c-0.6,0-1-0.4-1-1s0.4-1,1-1h16.3c0.6,0,1,0.4,1,1S38.7,19,38.1,19z"/>
	</g>
	<g id="XMLID_784_">
		<path class="st0" d="M48.5,19h-4.2c-0.6,0-1-0.4-1-1s0.4-1,1-1h4.2c0.6,0,1,0.4,1,1S49,19,48.5,19z"/>
	</g>
	<g id="XMLID_783_">
		<path class="st0" d="M38.1,26H21.8c-0.6,0-1-0.4-1-1s0.4-1,1-1h16.3c0.6,0,1,0.4,1,1S38.7,26,38.1,26z"/>
	</g>
	<g id="XMLID_782_">
		<path class="st0" d="M48.5,26h-4.2c-0.6,0-1-0.4-1-1s0.4-1,1-1h4.2c0.6,0,1,0.4,1,1S49,26,48.5,26z"/>
	</g>
	<g>
		<path class="st0" d="M18.7,60.9c-0.3,0-0.5-0.1-0.7-0.3l-2.3-2.3l-2.3,2.3c-0.4,0.4-1,0.4-1.4,0c-0.4-0.4-0.4-1,0-1.4l3-3
			c0.4-0.4,1-0.4,1.4,0l3,3c0.4,0.4,0.4,1,0,1.4C19.2,60.8,18.9,60.9,18.7,60.9z"/>
	</g>
	<g>
		<path class="st0" d="M24.8,60.9c-0.3,0-0.5-0.1-0.7-0.3l-2.3-2.3l-2.3,2.3c-0.4,0.4-1,0.4-1.4,0c-0.4-0.4-0.4-1,0-1.4l3-3
			c0.4-0.4,1-0.4,1.4,0l3,3c0.4,0.4,0.4,1,0,1.4C25.3,60.8,25.1,60.9,24.8,60.9z"/>
	</g>
	<g>
		<path class="st0" d="M30.9,60.9c-0.3,0-0.5-0.1-0.7-0.3L28,58.3l-2.3,2.3c-0.4,0.4-1,0.4-1.4,0c-0.4-0.4-0.4-1,0-1.4l3-3
			c0.4-0.4,1-0.4,1.4,0l3,3c0.4,0.4,0.4,1,0,1.4C31.5,60.8,31.2,60.9,30.9,60.9z"/>
	</g>
	<g>
		<path class="st0" d="M37.1,60.9c-0.3,0-0.5-0.1-0.7-0.3l-2.3-2.3l-2.3,2.3c-0.4,0.4-1,0.4-1.4,0c-0.4-0.4-0.4-1,0-1.4l3-3
			c0.4-0.4,1-0.4,1.4,0l3,3c0.4,0.4,0.4,1,0,1.4C37.6,60.8,37.3,60.9,37.1,60.9z"/>
	</g>
	<g>
		<path class="st0" d="M43.2,60.9c-0.3,0-0.5-0.1-0.7-0.3l-2.3-2.3L38,60.6c-0.4,0.4-1,0.4-1.4,0c-0.4-0.4-0.4-1,0-1.4l3-3
			c0.4-0.4,1-0.4,1.4,0l3,3c0.4,0.4,0.4,1,0,1.4C43.7,60.8,43.5,60.9,43.2,60.9z"/>
	</g>
	<g>
		<path class="st0" d="M49.3,60.9c-0.3,0-0.5-0.1-0.7-0.3l-2.3-2.3l-2.3,2.3c-0.4,0.4-1,0.4-1.4,0c-0.4-0.4-0.4-1,0-1.4l3-3
			c0.4-0.4,1-0.4,1.4,0l3,3c0.4,0.4,0.4,1,0,1.4C49.9,60.8,49.6,60.9,49.3,60.9z"/>
	</g>
	<g>
		<path class="st0" d="M55.5,60.9c-0.3,0-0.5-0.1-0.7-0.3l-2.3-2.3l-2.3,2.3c-0.4,0.4-1,0.4-1.4,0c-0.4-0.4-0.4-1,0-1.4l3-3
			c0.4-0.4,1-0.4,1.4,0l3,3c0.4,0.4,0.4,1,0,1.4C56,60.8,55.7,60.9,55.5,60.9z"/>
	</g>
	<g>
		<path class="st0" d="M34.1,52.3c-6.1,0-11.1-5-11.1-11.2s5-11.2,11.1-11.2s11.1,5,11.1,11.2S40.3,52.3,34.1,52.3z M34.1,31.9
			c-5,0-9.1,4.1-9.1,9.2s4.1,9.2,9.1,9.2s9.1-4.1,9.1-9.2S39.1,31.9,34.1,31.9z"/>
	</g>
	<g>
		<path class="st0" d="M34.1,45c-0.3,0-0.5-0.1-0.7-0.3l-4.2-4c-0.4-0.4-0.4-1,0-1.4c0.4-0.4,1-0.4,1.4,0l3.3,3.2l4.1-6
			c0.3-0.5,0.9-0.6,1.4-0.3c0.5,0.3,0.6,0.9,0.3,1.4l-4.8,7c-0.2,0.2-0.4,0.4-0.7,0.4C34.2,45,34.1,45,34.1,45z"/>
	</g>
</g>
</svg>
