<?xml version="1.0" encoding="utf-8"?>
<!-- Generator: Adobe Illustrator 22.0.0, SVG Export Plug-In . SVG Version: 6.00 Build 0)  -->
<svg version="1.1" id="Layer_1" xmlns="http://www.w3.org/2000/svg" xmlns:xlink="http://www.w3.org/1999/xlink" x="0px" y="0px"
	 viewBox="0 0 59 61" style="enable-background:new 0 0 59 61;" xml:space="preserve">
<style type="text/css">
	.st0{fill:#71C2A0;}
</style>
<g>
	<g>
		<path class="st0" d="M42,52H25.1c-0.6,0-1-0.4-1-1s0.4-1,1-1H42c0.6,0,1,0.4,1,1S42.5,52,42,52z"/>
	</g>
	<g>
		<path class="st0" d="M10.3,52C6.8,52,4,49.2,4,45.8c0-0.2,0-0.3,0-0.5c0-0.1,0-0.1,0-0.2v-39C4,2.8,6.8,0,10.3,0H42
			c0.6,0,1,0.4,1,1v39.6c0,0.6-0.4,1-1,1H10.3c-2.4,0-4.3,1.9-4.3,4.2c0,2.3,1.9,4.2,4.3,4.2c0.6,0,1,0.4,1,1S10.8,52,10.3,52z
			 M10.3,2C7.9,2,6,3.9,6,6.2v35.1c1.1-1,2.6-1.7,4.3-1.7H41V2H10.3z"/>
	</g>
	<g>
		<path class="st0" d="M10,37.2c-0.6,0-1-0.4-1-1V7c0-0.6,0.4-1,1-1s1,0.4,1,1v29.2C11,36.8,10.6,37.2,10,37.2z"/>
	</g>
	<g>
		<path class="st0" d="M34,21H18c-0.6,0-1-0.4-1-1v-8c0-0.6,0.4-1,1-1h16c0.6,0,1,0.4,1,1v8C35,20.6,34.6,21,34,21z M19,19h14v-6H19
			V19z"/>
	</g>
	<g>
		<path class="st0" d="M54,44.5h-6c-0.6,0-1-0.4-1-1V1c0-0.6,0.4-1,1-1h6c0.6,0,1,0.4,1,1v42.5C55,44.1,54.6,44.5,54,44.5z M49,42.5
			h4V2h-4V42.5z"/>
	</g>
	<g>
		<path class="st0" d="M50.9,51.8C50.9,51.8,50.9,51.8,50.9,51.8c-0.4,0-0.8-0.2-0.9-0.6l-3-7.2c-0.2-0.5,0-1.1,0.5-1.3
			c0.5-0.2,1.1,0,1.3,0.5l2,5l2.1-5c0.2-0.5,0.8-0.7,1.3-0.5c0.5,0.2,0.7,0.8,0.5,1.3l-3.1,7.2C51.7,51.5,51.3,51.8,50.9,51.8z"/>
	</g>
	<g>
		<path class="st0" d="M53.7,7.5h-5.5c-0.6,0-1-0.4-1-1s0.4-1,1-1h5.5c0.6,0,1,0.4,1,1S54.2,7.5,53.7,7.5z"/>
	</g>
	<g>
		<path class="st0" d="M13,61c-0.1,0-0.2,0-0.3-0.1C12.3,60.8,12,60.4,12,60V44.7c0-0.6,0.4-1,1-1h8c0.6,0,1,0.4,1,1V60
			c0,0.4-0.3,0.8-0.7,0.9c-0.4,0.1-0.8,0-1.1-0.3L17,56.8l-3.2,3.8C13.6,60.9,13.3,61,13,61z M16.9,54.2c0.3,0,0.6,0.1,0.8,0.4
			l2.3,2.7V45.7h-6v11.5l2.2-2.6C16.4,54.4,16.6,54.3,16.9,54.2C16.9,54.2,16.9,54.2,16.9,54.2z"/>
	</g>
	<g>
		<path class="st0" d="M38,48H21.7c-0.6,0-1-0.4-1-1s0.4-1,1-1H37v-5.4c0-0.6,0.4-1,1-1s1,0.4,1,1V47C39,47.6,38.5,48,38,48z"/>
	</g>
</g>
</svg>
