<?xml version="1.0" encoding="utf-8"?>
<!-- Generator: Adobe Illustrator 22.0.0, SVG Export Plug-In . SVG Version: 6.00 Build 0)  -->
<svg version="1.1" id="Layer_1" xmlns="http://www.w3.org/2000/svg" xmlns:xlink="http://www.w3.org/1999/xlink" x="0px" y="0px"
	 viewBox="0 0 59 61" style="enable-background:new 0 0 59 61;" xml:space="preserve">
<style type="text/css">
	.st0{fill:#71C2A0;}
</style>
<g>
	<g id="XMLID_826_">
		<path class="st0" d="M55.5,61c-0.6,0-1-0.4-1-1V5.3C54.5,3.5,53,2,51.2,2h-43c-0.6,0-1-0.4-1-1s0.4-1,1-1h43
			c2.9,0,5.3,2.4,5.3,5.3V60C56.5,60.6,56.1,61,55.5,61z"/>
	</g>
	<g id="XMLID_825_">
		<path class="st0" d="M12.8,25.9c-0.6,0-1-0.4-1-1V5.8c0-0.6,0.4-1,1-1s1,0.4,1,1v19.1C13.8,25.4,13.4,25.9,12.8,25.9z"/>
	</g>
	<g id="XMLID_824_">
		<path class="st0" d="M12.8,11H3.9c-0.6,0-1-0.4-1-1V5.7C2.9,2.4,5.2,0,8.2,0c3.1,0,5.7,2.6,5.7,5.7c0,0.6-0.4,1-1,1s-1-0.4-1-1
			c0-2-1.6-3.7-3.7-3.7C6.3,2,4.9,3.6,4.9,5.7V9h7.9c0.6,0,1,0.4,1,1S13.4,11,12.8,11z"/>
	</g>
	<g id="XMLID_823_">
		<path class="st0" d="M55.5,61H23.7c-0.6,0-1-0.4-1-1s0.4-1,1-1h31.8c0.6,0,1,0.4,1,1S56.1,61,55.5,61z"/>
	</g>
	<g id="XMLID_822_">
		<path class="st0" d="M47.6,12H22.2c-0.6,0-1-0.4-1-1s0.4-1,1-1h25.4c0.6,0,1,0.4,1,1S48.2,12,47.6,12z"/>
	</g>
	<g id="XMLID_821_">
		<path class="st0" d="M47.6,21H23c-0.6,0-1-0.4-1-1s0.4-1,1-1h24.6c0.6,0,1,0.4,1,1S48.2,21,47.6,21z"/>
	</g>
	<g id="XMLID_820_">
		<path class="st0" d="M47.6,30H35.3c-0.6,0-1-0.4-1-1s0.4-1,1-1h12.3c0.6,0,1,0.4,1,1S48.2,30,47.6,30z"/>
	</g>
	<g id="XMLID_819_">
		<path class="st0" d="M47.6,39H35.3c-0.6,0-1-0.4-1-1s0.4-1,1-1h12.3c0.6,0,1,0.4,1,1S48.2,39,47.6,39z"/>
	</g>
	<g id="XMLID_818_">
		<path class="st0" d="M47.6,48.1H35.3c-0.6,0-1-0.4-1-1s0.4-1,1-1h12.3c0.6,0,1,0.4,1,1S48.2,48.1,47.6,48.1z"/>
	</g>
	<g>
		<path class="st0" d="M17.1,50.7c-0.8,0-1.6-0.3-2.1-0.9l-1.4-1.4c-0.6-0.6-1.9-1.1-2.7-1.1h-2c-1.7,0-3-1.3-3-3v-2
			c0-0.8-0.5-2.1-1.1-2.7l-1.4-1.4c-1.2-1.2-1.2-3.1,0-4.2l1.4-1.4c0.6-0.6,1.1-1.9,1.1-2.7v-2c0-1.7,1.3-3,3-3h2
			c0.8,0,2.1-0.5,2.7-1.1l1.4-1.4c1.1-1.1,3.1-1.1,4.2,0l1.4,1.4c0.6,0.6,1.9,1.1,2.7,1.1h2c1.7,0,3,1.3,3,3v2
			c0,0.8,0.5,2.1,1.1,2.7l1.4,1.4c1.2,1.2,1.2,3.1,0,4.2l-1.4,1.4c-0.6,0.6-1.1,1.9-1.1,2.7v2c0,1.7-1.3,3-3,3h-2
			c-0.8,0-2.1,0.5-2.7,1.1l-1.4,1.4C18.7,50.4,17.9,50.7,17.1,50.7z M8.9,26.7c-0.6,0-1,0.4-1,1v2c0,1.4-0.7,3.1-1.7,4.1l-1.4,1.4
			c-0.4,0.4-0.4,1,0,1.4l1.4,1.4c1,1,1.7,2.7,1.7,4.1v2c0,0.6,0.4,1,1,1h2c1.4,0,3.1,0.7,4.1,1.7l1.4,1.4c0.4,0.4,1,0.4,1.4,0
			l1.4-1.4c1-1,2.7-1.7,4.1-1.7h2c0.6,0,1-0.4,1-1v-2c0-1.4,0.7-3.1,1.7-4.1l1.4-1.4c0.4-0.4,0.4-1,0-1.4L28,33.8
			c-1-1-1.7-2.8-1.7-4.1v-2c0-0.6-0.4-1-1-1h-2c-1.4,0-3.1-0.7-4.1-1.7l-1.4-1.4c-0.4-0.4-1-0.4-1.4,0L15,24.9c-1,1-2.7,1.7-4.1,1.7
			H8.9z"/>
	</g>
	<g>
		<path class="st0" d="M23.7,61c-0.2,0-0.4-0.1-0.6-0.2l-6.3-4.9l-6.3,4.9c-0.3,0.2-0.7,0.3-1.1,0.1c-0.3-0.2-0.6-0.5-0.6-0.9V46.2
			c0-0.6,0.4-1,1-1s1,0.4,1,1V58l5.3-4.1c0.4-0.3,0.9-0.3,1.2,0l5.3,4.1V46.2c0-0.6,0.4-1,1-1s1,0.4,1,1V60c0,0.4-0.2,0.7-0.6,0.9
			C24,61,23.9,61,23.7,61z"/>
	</g>
	<g>
		<path class="st0" d="M17.1,42.4c-0.6,0-1-0.4-1-1s0.4-1,1-1c2.4,0,4.4-2,4.4-4.4s-2-4.4-4.4-4.4s-4.4,2-4.4,4.4
			c0,0.6,0.1,1.2,0.3,1.7c0.2,0.5,0,1.1-0.5,1.3c-0.5,0.2-1.1,0-1.3-0.5c-0.3-0.8-0.5-1.6-0.5-2.5c0-3.6,2.9-6.4,6.4-6.4
			s6.4,2.9,6.4,6.4S20.6,42.4,17.1,42.4z"/>
	</g>
</g>
</svg>
