<?xml version="1.0" encoding="utf-8"?>
<!-- Generator: Adobe Illustrator 22.0.0, SVG Export Plug-In . SVG Version: 6.00 Build 0)  -->
<svg version="1.1" id="Layer_1" xmlns="http://www.w3.org/2000/svg" xmlns:xlink="http://www.w3.org/1999/xlink" x="0px" y="0px"
	 viewBox="0 0 59 61" style="enable-background:new 0 0 59 61;" xml:space="preserve">
<style type="text/css">
	.st0{fill:#71C2A0;}
</style>
<g>
	<g id="XMLID_781_">
		<path class="st0" d="M14.5,53.1c-6.6,0-12-5.4-12-12c0-6.6,5.4-11.9,12-11.9s12,5.4,12,11.9C26.4,47.7,21.1,53.1,14.5,53.1z
			 M14.5,31.2c-5.5,0-10,4.5-10,9.9s4.5,10,10,10c5.5,0,10-4.5,10-10S20,31.2,14.5,31.2z"/>
	</g>
	<g id="XMLID_780_">
		<path class="st0" d="M14.5,47.2c-1.5,0-3-0.5-4.1-1.6c-1.1-1-1.8-2.5-2-4c0-0.5,0.4-1,0.9-1.1c0.6,0,1,0.4,1.1,0.9
			c0.1,1,0.6,2,1.3,2.7c1.7,1.5,4.3,1.4,5.8-0.3c0.7-0.8,1.1-1.9,1.1-3c0-1.1-0.5-2.1-1.3-2.8c-0.7-0.6-1.6-1-2.5-1.1
			c-0.6,0-1-0.5-0.9-1.1c0-0.6,0.5-0.9,1.1-0.9c1.4,0.1,2.7,0.7,3.7,1.6c1.2,1.1,1.9,2.6,2,4.2c0.1,1.6-0.5,3.2-1.6,4.4
			C17.8,46.5,16.1,47.2,14.5,47.2z"/>
	</g>
	<g id="XMLID_779_">
		<path class="st0" d="M44.7,2H12.4c-0.6,0-1-0.4-1-1s0.4-1,1-1h32.3c0.6,0,1,0.4,1,1S45.3,2,44.7,2z"/>
	</g>
	<g id="XMLID_778_">
		<path class="st0" d="M55.5,60.9c-0.6,0-1-0.4-1-1V5.3C54.5,3.5,53,2,51.2,2H39.6c-0.6,0-1-0.4-1-1s0.4-1,1-1h11.5
			c2.9,0,5.3,2.4,5.3,5.3v54.5C56.5,60.4,56.1,60.9,55.5,60.9z"/>
	</g>
	<g id="XMLID_777_">
		<path class="st0" d="M12.4,27c-0.6,0-1-0.4-1-1V1c0-0.6,0.4-1,1-1s1,0.4,1,1v25C13.4,26.6,13,27,12.4,27z"/>
	</g>
	<g id="XMLID_776_">
		<path class="st0" d="M55.5,61h-29c-0.6,0-1-0.4-1-1s0.4-1,1-1h29c0.6,0,1,0.4,1,1S56.1,61,55.5,61z"/>
	</g>
	<g id="XMLID_775_">
		<path class="st0" d="M47.7,14H35.4c-0.6,0-1-0.4-1-1s0.4-1,1-1h12.3c0.6,0,1,0.4,1,1S48.2,14,47.7,14z"/>
	</g>
	<g id="XMLID_774_">
		<path class="st0" d="M44.3,20h-8.9c-0.6,0-1-0.4-1-1s0.4-1,1-1h8.9c0.6,0,1,0.4,1,1S44.8,20,44.3,20z"/>
	</g>
	<g id="XMLID_773_">
		<path class="st0" d="M47.9,29H32.5c-0.6,0-1-0.4-1-1s0.4-1,1-1h15.4c0.6,0,1,0.4,1,1S48.4,29,47.9,29z"/>
	</g>
	<g id="XMLID_772_">
		<path class="st0" d="M47.9,36H32.5c-0.6,0-1-0.4-1-1s0.4-1,1-1h15.4c0.6,0,1,0.4,1,1S48.4,36,47.9,36z"/>
	</g>
	<g id="XMLID_771_">
		<path class="st0" d="M47.9,43H32.5c-0.6,0-1-0.4-1-1s0.4-1,1-1h15.4c0.6,0,1,0.4,1,1S48.4,43,47.9,43z"/>
	</g>
	<g id="XMLID_770_">
		<path class="st0" d="M47.9,50H32.5c-0.6,0-1-0.4-1-1s0.4-1,1-1h15.4c0.6,0,1,0.4,1,1S48.4,50,47.9,50z"/>
	</g>
	<g>
		<path class="st0" d="M30.5,23H18.4c-0.6,0-1-0.4-1-1v-1.9c0-3.9,3.2-7,7.1-7s7.1,3.2,7.1,7V22C31.5,22.5,31.1,23,30.5,23z
			 M19.4,21h10.1v-0.9c0-2.8-2.3-5-5.1-5s-5.1,2.3-5.1,5V21z"/>
	</g>
	<g>
		<path class="st0" d="M24.4,15c-2.4,0-4.3-1.9-4.3-4.3V8.9c0-0.6,0.4-1,1-1s1,0.4,1,1v1.8c0,1.3,1,2.3,2.3,2.3s2.3-1,2.3-2.3V8.9
			c0-0.6,0.4-1,1-1s1,0.4,1,1v1.8C28.8,13.1,26.8,15,24.4,15z"/>
	</g>
	<g>
		<path class="st0" d="M24.4,11.1c-0.1,0-0.2,0-0.3-0.1l-6-2.2c-0.4-0.1-0.7-0.5-0.7-0.9c0-0.4,0.3-0.8,0.7-0.9l6-2.2
			c0.2-0.1,0.5-0.1,0.7,0l6,2.2c0.4,0.1,0.7,0.5,0.7,0.9c0,0.4-0.3,0.8-0.7,0.9l-6,2.2C24.7,11.1,24.6,11.1,24.4,11.1z M21.3,7.9
			l3.1,1.1l3.1-1.1l-3.1-1.1L21.3,7.9z"/>
	</g>
	<g>
		<path class="st0" d="M21.4,61c-0.2,0-0.3,0-0.5-0.1l-7.1-3.6l-7.1,3.6c-0.3,0.2-0.7,0.1-1,0c-0.3-0.2-0.5-0.5-0.5-0.9V49.2
			c0-0.6,0.4-1,1-1s1,0.4,1,1v9.2l6.1-3.1c0.3-0.1,0.6-0.1,0.9,0l6.1,3.1v-8.5c0-0.6,0.4-1,1-1s1,0.4,1,1V60c0,0.3-0.2,0.7-0.5,0.9
			C21.8,60.9,21.6,61,21.4,61z"/>
	</g>
</g>
</svg>
