<?xml version="1.0" encoding="utf-8"?>
<!-- Generator: Adobe Illustrator 22.0.0, SVG Export Plug-In . SVG Version: 6.00 Build 0)  -->
<svg version="1.1" id="Layer_1" xmlns="http://www.w3.org/2000/svg" xmlns:xlink="http://www.w3.org/1999/xlink" x="0px" y="0px"
	 viewBox="0 0 70 46" style="enable-background:new 0 0 70 46;" xml:space="preserve">
<style type="text/css">
	.st0{fill:#FFFFFF;}
	.st1{fill:#005098;}
	.st2{fill:#F6A500;}
</style>
<g>
	<path class="st0" d="M67,46H3c-1.7,0-3-1.3-3-3V3c0-1.7,1.3-3,3-3h64c1.7,0,3,1.3,3,3v40C70,44.7,68.7,46,67,46z"/>
	<polygon class="st1" points="26.3,30.9 29,15.1 33.3,15.1 30.6,30.9 	"/>
	<path class="st1" d="M46.2,15.5c-0.9-0.3-2.2-0.7-3.9-0.7c-4.3,0-7.3,2.1-7.3,5.2c0,2.3,2.1,3.5,3.8,4.3c1.7,0.8,2.2,1.3,2.2,2
		c0,1.1-1.3,1.5-2.6,1.5c-1.7,0-2.6-0.2-4.1-0.8l-0.6-0.3l-0.6,3.5c1,0.4,2.9,0.8,4.8,0.8c4.5,0,7.5-2.1,7.5-5.4
		c0-1.8-1.1-3.2-3.6-4.3c-1.5-0.7-2.4-1.2-2.4-2c0-0.7,0.8-1.4,2.5-1.4c1.4,0,2.4,0.3,3.2,0.6l0.4,0.2L46.2,15.5"/>
	<path class="st1" d="M57.3,15.1h-3.3c-1,0-1.8,0.3-2.3,1.3l-6.4,14.5h4.5c0,0,0.7-1.9,0.9-2.4c0.5,0,4.9,0,5.5,0
		c0.1,0.6,0.5,2.4,0.5,2.4h4L57.3,15.1 M52,25.3c0.4-0.9,1.7-4.4,1.7-4.4c0,0,0.4-0.9,0.6-1.5l0.3,1.4c0,0,0.8,3.8,1,4.6H52z"/>
	<path class="st1" d="M22.7,15.1l-4.2,10.8L18,23.7c-0.8-2.5-3.2-5.3-6-6.6l3.9,13.8l4.6,0l6.8-15.8H22.7"/>
	<path class="st2" d="M14.5,15.1h-7l-0.1,0.3c5.4,1.3,9,4.5,10.5,8.3l-1.5-7.3C16.2,15.4,15.5,15.1,14.5,15.1"/>
</g>
</svg>
